<svg xmlns="http://www.w3.org/2000/svg" xmlns:xlink="http://www.w3.org/1999/xlink" viewBox="0 0 937.9 828"><style><![CDATA[.AR{fill:#f6e9d6}.AS{fill:#f6d9b4}.AT{fill:#fffbf5}.AU{fill:#d5af71}.AV{fill:#c68e4b}.AW{fill:#b56e35}.AX{fill:#e0b57e}.AY{fill:#fff}.AZ{fill:#fcd9a6}.Aa{fill:#ebc391}.Ab{fill:#fffbef}.Ac{fill:#231f20}.Ad{fill:#424b54}.Ae{fill:#54606b}.Af{fill:#ebbd84}.Ag{fill:#f6e2c5}.Ah{fill:#ebcca4}.Ai{fill:#fcd49a}.Aj{fill:#f6dfbd}]]></style><defs><path id="A" d="M83 447.9C83 657.8 253.2 828 463.1 828s380.1-170.2 380.1-380.1S673 67.8 463.1 67.8 83 238 83 447.9"/><path id="B" d="M563.8 378.3l-37.5-35.2-44.7 20.4 37.5 35.2z"/><path id="C" d="M851.7 474.4l.6 3.5 4.4-.9.4 2.1-4.4.8.7 3.6 4.9-.9.4 2-7.6 1.5-2.5-13.2 7.6-1.5.4 2.1z"/><path id="D" d="M393.6 207.3c-3.7-.7-6-6.1-1.8-15.1s11.6-7.7 16.5-14.3 8.5 12.1-3.5 18.5c-11.9 6.3-5.5 12-11.2 10.9"/></defs><clipPath id="E"><use xlink:href="#A"/></clipPath><linearGradient id="F" gradientUnits="userSpaceOnUse" x1="463.131" y1="59.997" x2="463.131" y2="822"><stop offset="0" stop-color="#1b9b40"/><stop offset="0" stop-color="#1b9b40"/><stop offset=".935" stop-color="#15722d"/><stop offset="1" stop-color="#15722d"/></linearGradient><path d="M83 67.8h760.2V828H83z" clip-path="url(#E)" fill="url(#F)"/><path d="M114.8 599.3c20.1 45.9 49.1 87.1 84.7 121.4 38.5 4.9 78.9-1.2 116.3-19.8 13.7-6.8 26.3-15 37.8-24.3l2.2 13.4 1.9 12.4 1.6 10.8 1.9 12.4c0 11.7 55.2 26.2 122.4 26.2s122.3-14.4 122.3-26.2l1.5-10 150-28.4c21.8-26.6 40-56.2 54-88.1H114.8zm83.6 83.1c-.9-.1-1.7-.2-2.6-.4h-.3c-.7-.1-1.4-.3-2.2-.4-.2 0-.5-.1-.7-.1-.6-.1-1.1-.3-1.7-.4l-1.2-.3-2.8-.9c-1-.3-1.9-.7-2.8-1-.3-.1-.5-.2-.8-.3-.7-.3-1.3-.6-2-.9-.2-.1-.5-.2-.7-.3-.7-.3-1.3-.6-2-1-.2-.1-.3-.2-.5-.3l-2.1-1.2c-.1-.1-.2-.1-.3-.2-.8-.5-1.5-.9-2.2-1.4l-.1-.1c-2.4-1.6-4.7-3.4-6.8-5.3-11.6-10.6-18.5-25.7-18.7-41.6 31.6 22.4 72.1 30.5 110.7 20.4-9.9 24.3-34.8 38.7-60.2 35.7" fill="#0e491b"/><path d="M861 342.9l-380.7 71.9 4.7 25 46.9 247.8c2.6 13.7 16 22.8 29.7 20.2l355.7-67.2c13.7-2.6 22.8-16 20.2-29.7L885.9 338l-24.9 4.9z" fill="#2c2c2c"/><path d="M468.88 385.42l33.3-6.295 10.436 55.222-33.3 6.295z" fill="#070607"/><path d="M886.4 338.1l-397.3 75.1-11.7 17.2 4.6 24.3 1.9 10.3c.5 2.9 3.4 4.8 6.3 4.3l406.5-76.8c2.9-.5 4.8-3.4 4.3-6.2l-1.9-10.3-7.3-38.8-5.4.9z" class="Ac"/><path d="M524 406.5l-11.9 58.6 48.2-9.2 12-58.5zm95.1-17.9l-12 58.5 48.3-9.1 12-58.5zm95-18l-12 58.5 48.3-9.1 12-58.5zm95-17.9l-12 58.5 48.3-9.1 12-58.6z" class="AY"/><path d="M607.1 358.6l-37.5-35.3-43.3 19.8 37.5 35.2zm176-80.3l-37.5-35.2-43.3 19.7 37.5 35.2zm-88 40.1l-37.5-35.2-43.3 19.8 37.5 35.2zm167.2-76.2l-13.2-28.9-4.3-9.5c-1.2-2.7-4.4-3.9-7.1-2.6l-47.4 21.6 37.5 35.2 34.5-15.8z" class="Ac"/><g class="AY"><use xlink:href="#B"/><path d="M651.8 338.2L614.3 303l-44.7 20.3 37.5 35.3z"/><use xlink:href="#B" x="176" y="-80.3"/><use xlink:href="#B" x="264" y="-120.4"/></g><path d="M489.1 412.4l30-13.7-37.5-35.2-20.3 9.3c-2.7 1.2-3.9 4.4-2.6 7.1l4.3 9.5 7.3 16 18.8 7z" class="Ac"/><path d="M492.4 397.3a4.4 4.4 0 0 1-3.5 5.1 4.4 4.4 0 0 1-5.1-3.5 4.4 4.4 0 0 1 3.5-5.1c2.4-.4 4.7 1.2 5.1 3.5" fill="#070607"/><g class="AY"><path d="M523.7 501.7l1.4 7.5-3.8.7-3.6-18.9 7-1.3c1.5-.3 2.8-.3 3.9.1 1.1.3 2 .9 2.7 1.6.7.8 1.1 1.7 1.3 2.7.2.9.1 1.8-.2 2.8-.3.9-.9 1.8-1.8 2.6s-2.2 1.3-3.8 1.6l-3.1.6zm4.7-4.7c.4-.6.5-1.3.4-2.2-.2-.9-.5-1.5-1.1-1.9s-1.4-.5-2.3-.3l-3.1.6 1 5.5 3.1-.6c.9-.1 1.6-.5 2-1.1m19.2 7.9l-5.9-6.7-1.2.2 1.4 7.5-3.8.7-3.6-18.9 7-1.3c1.5-.3 2.8-.3 3.9.1 1.1.3 2 .9 2.7 1.6.7.8 1.1 1.7 1.3 2.7.2 1.2.1 2.4-.5 3.5-.5 1.2-1.5 2.1-3 2.8l6.3 6.9-4.6.9zm-7.8-9.3l3.1-.6c1-.2 1.6-.6 2-1.2s.5-1.3.4-2.2c-.2-.9-.5-1.5-1.1-1.9s-1.4-.5-2.3-.3l-3.1.6 1 5.6zm25.8-12.6c1.6.6 3 1.5 4.1 2.8s1.9 2.9 2.2 4.7c.4 1.9.2 3.6-.3 5.2-.6 1.6-1.5 3-2.9 4.1-1.3 1.1-2.9 1.8-4.6 2.2-1.8.3-3.5.2-5.1-.3-1.6-.6-3-1.5-4.2-2.8-1.1-1.3-1.9-2.9-2.2-4.8-.3-1.8-.2-3.6.3-5.2.6-1.6 1.5-3 2.9-4.1 1.3-1.1 2.9-1.8 4.6-2.2 1.9-.3 3.6-.2 5.2.4m-7.3 4.5c-.8.7-1.3 1.5-1.6 2.5s-.3 2.2-.1 3.4.7 2.3 1.3 3.1c.7.8 1.5 1.4 2.5 1.8s2 .4 3.2.2c1.1-.2 2.1-.7 2.9-1.3.8-.7 1.3-1.5 1.6-2.6.3-1 .3-2.2.1-3.4s-.7-2.3-1.3-3.1c-.7-.8-1.5-1.4-2.4-1.8-1-.3-2-.4-3.1-.2-1.4.3-2.3.7-3.1 1.4m33 4.6c-.6 1.6-1.6 2.9-3 4s-3.1 1.8-5.1 2.2l-6.4 1.2-3.6-18.9 6.4-1.2c2-.4 3.8-.3 5.5.2s3.1 1.4 4.2 2.6c1.1 1.3 1.9 2.8 2.2 4.7.4 1.9.3 3.6-.2 5.2m-4.3.6c.9-1.4 1.1-3.1.8-5.1-.4-2-1.2-3.5-2.6-4.4-1.3-1-3-1.3-5-.9l-2.6.5 2.5 13 2.6-.5c2-.4 3.4-1.2 4.3-2.6m9.6-16.6l2.2 11.6c.2 1.3.8 2.2 1.5 2.8.8.5 1.8.7 3 .5s2.1-.7 2.7-1.5c.5-.8.7-1.8.4-3.1l-2.2-11.6 3.8-.7 2.2 11.6c.3 1.6.2 3-.3 4.3s-1.3 2.3-2.3 3.1c-1.1.8-2.3 1.3-3.7 1.6s-2.7.2-3.9-.1c-1.3-.3-2.3-1-3.2-2s-1.5-2.3-1.8-3.9l-2.2-11.6 3.8-1zm29.7-4.3c1.8.7 3.2 2 4.3 3.8l-4.6.9c-1.2-1.5-2.8-2.1-4.8-1.7-1.1.2-2.1.7-2.9 1.3-.8.7-1.3 1.5-1.6 2.6-.3 1-.3 2.2-.1 3.4s.7 2.3 1.3 3.1c.7.8 1.5 1.4 2.5 1.8s2 .4 3.2.2c2-.4 3.3-1.5 3.9-3.3l4.6-.9c-.3 2-1.2 3.7-2.6 5s-3.1 2.2-5.2 2.6c-1.8.3-3.5.2-5.1-.3s-3-1.5-4.2-2.8c-1.1-1.3-1.9-2.9-2.2-4.8-.3-1.8-.2-3.6.3-5.2.6-1.6 1.5-3 2.9-4.1 1.3-1.1 2.9-1.8 4.6-2.2 2-.3 3.9-.1 5.7.6m19.4-5l.5 3-5.1.9 3 16-3.8.7-3-16-5.1 1-.5-2.9zm2.845-.448l3.832-.724 3.565 18.866-3.832.724z"/><path d="M670.1 463.2c1.6.6 3 1.5 4.1 2.8s1.9 2.9 2.2 4.7c.4 1.9.2 3.6-.3 5.2-.6 1.6-1.5 3-2.9 4.1-1.3 1.1-2.9 1.8-4.6 2.2-1.8.3-3.5.2-5.1-.3s-3-1.5-4.2-2.8c-1.1-1.3-1.9-2.9-2.2-4.8-.4-1.8-.2-3.6.3-5.2.6-1.6 1.5-3 2.9-4.1 1.3-1.1 2.9-1.8 4.6-2.2 1.9-.2 3.6-.1 5.2.4m-7.3 4.5c-.8.7-1.3 1.5-1.6 2.6-.3 1-.3 2.2-.1 3.4s.7 2.3 1.3 3.1c.7.8 1.5 1.4 2.5 1.8s2 .4 3.2.2c1.1-.2 2.1-.7 2.9-1.3.8-.7 1.3-1.5 1.6-2.5s.3-2.2.1-3.4-.7-2.3-1.3-3.1c-.7-.8-1.5-1.4-2.4-1.8-1-.3-2-.4-3.1-.2-1.4.1-2.3.5-3.1 1.2m34.7 8.9l-3.8.7-11.1-11.5 2.5 13.1-3.8.8-3.6-19 3.8-.7 11.1 11.5-2.5-13.1 3.8-.7zm188.3-16.9l-1-5.3-361.1 68.2 1 5.3 106-20 11.2 59.1-106 20 1 5.3 177.9-33.6 4 21-177.9 33.6 1 5.3L719.8 585l4 21-177.9 33.6 1 5.3 177.9-33.6 8.6 45.4 5.3-1-8.6-45.4L908 576.6l-1-5.3L729 605l-8.9-47.3L898 524l-1-5.3-106 20-11.2-59.1 106-19.9zm-100 80.1L647.1 566 636 506.9l138.6-26.2 11.2 59.1zm-228.6-.1c-.3.7-.7 1.3-1.4 1.8-.6.5-1.4.8-2.4 1-1.4.3-2.7.2-3.7-.3s-1.6-1.4-1.9-2.6l2.8-.5c.2.6.4.9.8 1.2.4.2.9.3 1.5.2s1.1-.4 1.3-.7c.3-.4.4-.8.3-1.3-.1-.4-.3-.7-.5-.9-.3-.2-.6-.3-1-.4s-.9-.1-1.6-.2c-.9-.1-1.6-.1-2.2-.3-.6-.1-1.1-.4-1.6-.8s-.8-1-.9-1.9c-.2-.8-.1-1.5.2-2.2s.7-1.2 1.4-1.7c.6-.5 1.4-.8 2.3-.9 1.4-.3 2.5-.2 3.5.3.9.5 1.6 1.3 1.9 2.6l-2.9.5c-.1-.5-.4-.9-.8-1.1s-.8-.3-1.3-.2-1 .3-1.2.7c-.3.3-.4.8-.3 1.3.1.4.3.7.6.9s.6.3 1 .4.9.1 1.6.2c.9.1 1.6.1 2.2.3.6.1 1.1.4 1.5.8.5.4.8 1 .9 1.9.2.5.2 1.2-.1 1.9m11-12.8c1.3.5 2.2 1.4 3 2.6l-3.2.6c-.8-1-1.9-1.4-3.3-1.2-.8.2-1.5.5-2 .9-.5.5-.9 1.1-1.1 1.8s-.2 1.5-.1 2.4c.2.9.5 1.6.9 2.2.5.6 1 1 1.7 1.3.7.2 1.4.3 2.2.1 1.4-.3 2.3-1 2.7-2.3l3.2-.6c-.2 1.4-.8 2.6-1.8 3.5s-2.2 1.5-3.6 1.8c-1.2.2-2.4.2-3.6-.2-1.1-.4-2.1-1-2.9-1.9s-1.3-2-1.6-3.3c-.2-1.3-.2-2.5.2-3.6s1.1-2.1 2-2.9 2-1.3 3.2-1.5c1.5-.4 2.8-.3 4.1.3m7.5-.3l.7 3.4 4.4-.8.3 2-4.3.9.6 3.6 5-.9.4 2-7.6 1.4-2.5-13.2 7.6-1.4.4 2zm21.1 7.6l-2.7.5-7.7-8 1.7 9.1-2.6.5-2.5-13.2 2.7-.5 7.6 8-1.7-9.1 2.7-.5zm3.3-12.2l.7 3.4 4.4-.8.4 2-4.4.8.7 3.7 4.9-.9.4 2-7.6 1.4-2.5-13.2 7.6-1.4.4 2z"/><path d="M696.3 502.7c1.2.5 2.2 1.4 3 2.6l-3.2.6c-.8-1-1.9-1.4-3.3-1.2-.8.1-1.5.5-2 .9-.5.5-.9 1.1-1.1 1.8s-.2 1.5-.1 2.4c.2.9.5 1.6.9 2.2.5.6 1 1 1.7 1.2s1.4.3 2.2.1c1.4-.3 2.3-1 2.7-2.3l3.2-.6c-.2 1.4-.8 2.6-1.8 3.5s-2.2 1.5-3.6 1.8c-1.2.2-2.4.2-3.6-.2-1.1-.4-2.1-1-2.9-1.9s-1.3-2-1.5-3.3-.2-2.5.2-3.6 1.1-2.1 2-2.9 2-1.3 3.2-1.5c1.4-.3 2.7-.2 4 .4m7.1-2.3l1.5 8.1c.2.9.5 1.5 1.1 1.9.5.4 1.2.5 2.1.3s1.5-.5 1.8-1.1c.4-.6.5-1.3.3-2.2l-1.5-8.1 2.6-.5 1.5 8.1a5.97 5.97 0 0 1-.2 3c-.4.9-.9 1.6-1.6 2.1s-1.6.9-2.6 1.1-1.9.2-2.7-.1c-.9-.2-1.6-.7-2.2-1.4s-1-1.6-1.3-2.7l-1.5-8.1 2.7-.4zm19.7-3.8l.4 2.1-3.6.7 2.1 11.1-2.6.5-2.1-11.2-3.5.7-.4-2zm97.5-18.4l.4 2.1-3.6.6 2.1 11.2-2.6.5-2.1-11.2-3.6.7-.4-2zm11.8 8.9l-5.1 1-.4 2.6-2.8.5 2.2-14.1 3.2-.6 7.1 12.3-2.8.5-1.4-2.2zm-1-2l-2.9-5.1-.8 5.8 3.7-.7zm10.9-4.2l7 5.5-3.5.7-5.8-5 1.1 5.9-2.7.5-2.5-13.2 2.7-.5 1.1 5.9 3.6-6.8 3.5-.6z"/><use xlink:href="#C"/><path d="M548.2 604.5c-.3.9-.9 1.6-1.6 2.2-.8.6-1.7 1-2.8 1.2l-3.5.7-1.9-10.3 3.5-.7c1.1-.2 2.1-.2 3 .1s1.7.7 2.3 1.4 1 1.6 1.2 2.6.1 1.9-.2 2.8m-2.3.3c.5-.8.6-1.7.4-2.8s-.7-1.9-1.4-2.4-1.6-.7-2.7-.5l-1.4.3 1.3 7.1 1.4-.3c1.1-.2 1.9-.6 2.4-1.4m10.8-1.4l-4 .8-.3 2.1-2.2.4 1.7-11 2.5-.5 5.6 9.6-2.2.4-1.1-1.8zm-.8-1.5l-2.3-4-.6 4.6 2.9-.6zm10.6-9l.3 1.6-2.8.5 1.6 8.7-2 .4-1.7-8.7-2.8.5-.3-1.6zm3.9.8l.5 2.7 3.5-.6.3 1.6-3.5.6.6 2.9 3.8-.7.3 1.6-5.9 1.1-2-10.4 6-1.1.3 1.6zM546.5 630l.8 4.1-2.1.4-1.9-10.3 3.8-.7c.8-.2 1.5-.1 2.1 0 .6.2 1.1.5 1.5.9s.6.9.7 1.5c.1.5.1 1-.1 1.5s-.5 1-1 1.4-1.2.7-2.1.9l-1.7.3zm2.6-2.6c.2-.3.3-.7.2-1.2s-.3-.8-.6-1-.8-.3-1.3-.2l-1.7.3.6 3 1.7-.3c.5-.1.8-.3 1.1-.6m10.4 4.3l-3.2-3.6-.7.1.8 4.1-2.1.4-1.9-10.3 3.8-.7c.8-.1 1.5-.1 2.1 0 .6.2 1.1.5 1.5.9s.6.9.7 1.5 0 1.3-.2 1.9c-.3.6-.8 1.1-1.6 1.5l3.4 3.7-2.6.5zm-4.2-5l1.7-.3c.5-.1.9-.3 1.1-.6s.3-.7.2-1.2-.3-.8-.6-1-.8-.3-1.3-.2l-1.7.3.6 3zm14.1-6.9c.9.3 1.6.8 2.3 1.5.6.7 1 1.6 1.2 2.6s.1 2-.2 2.9-.8 1.6-1.6 2.2c-.7.6-1.6 1-2.5 1.2-1 .2-1.9.1-2.8-.2s-1.6-.8-2.3-1.5c-.6-.7-1-1.6-1.2-2.6s-.1-1.9.2-2.8.8-1.6 1.6-2.2c.7-.6 1.6-1 2.5-1.2 1-.3 1.9-.2 2.8.1m-4 2.4c-.4.4-.7.8-.9 1.4s-.2 1.2-.1 1.8c.1.7.4 1.2.7 1.7.4.5.8.8 1.3 1s1.1.2 1.7.1 1.1-.4 1.6-.7c.4-.4.7-.8.9-1.4s.2-1.2.1-1.9-.4-1.2-.7-1.7c-.4-.5-.8-.8-1.3-1s-1.1-.2-1.7-.1a4.77 4.77 0 0 0-1.6.8m17.9 2.5c-.3.9-.9 1.6-1.6 2.2-.8.6-1.7 1-2.8 1.2l-3.5.7-1.9-10.3 3.5-.7c1.1-.2 2.1-.2 3 .1s1.7.8 2.3 1.4c.6.7 1 1.6 1.2 2.6s.2 2-.2 2.8m-2.3.4c.5-.8.6-1.7.4-2.8s-.7-1.9-1.4-2.4-1.6-.7-2.7-.5l-1.4.3 1.3 7.1 1.4-.3c1.1-.2 1.9-.7 2.4-1.4m-19.9 33.5c-.4 1.1-1.1 2-2.1 2.8-1 .7-2.1 1.2-3.5 1.5l-4.5.8-2.5-13.2 4.5-.8c1.4-.3 2.7-.2 3.8.1 1.2.3 2.1 1 2.9 1.8.8.9 1.3 2 1.5 3.3.4 1.4.3 2.6-.1 3.7m-2.9.4c.6-1 .8-2.1.5-3.5s-.9-2.4-1.8-3.1-2.1-.9-3.5-.6l-1.8.3 1.7 9.1 1.8-.3c1.4-.3 2.4-.9 3.1-1.9m3.97-10.997l2.653-.502 2.5 13.167-2.653.502zM576.9 658.8l-4.1-4.6-.9.2 1 5.2-2.7.5-2.5-13.2 4.8-.9c1-.2 1.9-.2 2.7 0a3.99 3.99 0 0 1 1.9 1.1c.5.5.8 1.2.9 1.9.2.8.1 1.6-.3 2.5-.4.8-1.1 1.5-2.1 1.9l4.4 4.8-3.1.6zm-5.4-6.5l2.2-.4c.7-.1 1.1-.4 1.4-.8s.4-.9.3-1.5-.4-1-.8-1.3-1-.4-1.6-.2l-2.2.4.7 3.8zm11.5-6.2l.6 3.5 4.4-.9.4 2.1-4.4.8.7 3.6 5-.9.3 2-7.6 1.5-2.5-13.2 7.6-1.5.4 2.1zm17.3-4.4c1.2.5 2.2 1.4 3 2.6l-3.2.6c-.8-1-1.9-1.4-3.3-1.2-.8.2-1.5.5-2 .9-.5.5-.9 1.1-1.1 1.8s-.2 1.5-.1 2.4c.2.9.5 1.6.9 2.2.5.6 1 1 1.7 1.2s1.4.3 2.2.1c1.4-.3 2.3-1 2.7-2.3l3.2-.6c-.2 1.4-.8 2.6-1.8 3.5s-2.2 1.5-3.6 1.8c-1.2.2-2.4.2-3.6-.2-1.1-.4-2.1-1-2.9-1.9s-1.3-2-1.6-3.3c-.2-1.3-.2-2.5.2-3.6s1.1-2.1 2-2.9 2-1.3 3.2-1.5c1.5-.2 2.8-.1 4.1.4m13.4-3.5l.4 2.1-3.5.6 2.1 11.2-2.7.5-2.1-11.2-3.5.7-.4-2zm11.6-1.4c1.1.4 2.1 1 2.9 1.9s1.3 2 1.5 3.3.2 2.5-.2 3.6-1.1 2.1-2 2.9-2 1.3-3.2 1.5-2.4.2-3.6-.2c-1.1-.4-2.1-1-2.9-1.9s-1.3-2-1.6-3.3c-.2-1.3-.2-2.5.2-3.6s1.1-2.1 2-2.9 2-1.3 3.2-1.5c1.4-.3 2.6-.2 3.7.2m-5.1 3.1c-.5.5-.9 1.1-1.1 1.8s-.2 1.5-.1 2.4c.2.9.5 1.6.9 2.2.5.6 1 1 1.7 1.2s1.4.3 2.2.1c.8-.1 1.5-.5 2-.9.5-.5.9-1.1 1.1-1.8s.2-1.5.1-2.4c-.2-.9-.5-1.6-.9-2.2-.5-.6-1-1-1.7-1.2s-1.4-.3-2.2-.1c-.8.1-1.5.4-2 .9m19.6 7l-4.1-4.7-.9.2 1 5.2-2.7.5-2.5-13.2 4.8-.9c1-.2 1.9-.2 2.7 0a3.99 3.99 0 0 1 1.9 1.1c.5.5.8 1.2.9 1.9.2.8.1 1.7-.3 2.5s-1.1 1.5-2.1 1.9l4.4 4.8-3.1.7zm-5.4-6.5l2.2-.4c.7-.1 1.1-.4 1.4-.8s.4-.9.3-1.5-.4-1-.8-1.3-1-.4-1.6-.2l-2.2.4.7 3.8zm114.2-26.7c1.2.5 2.2 1.4 3 2.6l-3.2.6c-.8-1-1.9-1.4-3.3-1.2-.8.1-1.5.5-2 .9-.5.5-.9 1.1-1.1 1.8s-.2 1.5-.1 2.4c.2.9.5 1.6.9 2.2.5.6 1 1 1.7 1.3.7.2 1.4.3 2.2.1 1.4-.3 2.3-1 2.7-2.3l3.2-.6c-.2 1.4-.8 2.6-1.8 3.5s-2.2 1.5-3.6 1.8c-1.2.2-2.4.2-3.6-.2-1.1-.4-2.1-1-2.9-1.9s-1.3-2-1.6-3.3c-.2-1.3-.2-2.5.2-3.6s1.1-2.1 2-2.9 2-1.3 3.2-1.5c1.5-.4 2.9-.2 4.1.3m14.4 7.4l-5.1 1-.4 2.6-2.8.5 2.2-14.1 3.2-.6 7.1 12.3-2.8.5-1.4-2.2zm-1.1-1.9l-2.9-5.1-.8 5.8 3.7-.7zm18.9-12.5l2.5 13.1-2.7.5-1.5-8.3-2 9-1.9.4-5.2-7.6 1.6 8.2-2.7.5-2.5-13.1 3-.6 6.1 9 2.4-10.6z"/><use xlink:href="#C" x="-65" y="133.2"/><path d="M803.1 616.1l-4.1-4.7-.9.2 1 5.2-2.7.5-2.5-13.2 4.9-.9c1-.2 1.9-.2 2.7 0a3.99 3.99 0 0 1 1.9 1.1c.5.5.8 1.2.9 1.9.2.8.1 1.7-.3 2.5s-1.1 1.4-2.1 1.9l4.4 4.8-3.2.7zm-5.4-6.5l2.2-.4c.7-.1 1.1-.4 1.4-.8s.4-.9.3-1.5-.4-1-.8-1.3-1-.4-1.6-.2l-2.2.4.7 3.8zm18.3 1.5l-5.1 1-.4 2.6-2.8.5 2.2-14.1 3.2-.6 7.1 12.3-2.8.5-1.4-2.2zm-1.1-1.9L812 604l-.8 5.8 3.7-.6zm-79.3-37.6l-3.2-3.6-.7.1.8 4.1-2.1.4-1.9-10.3 3.8-.7c.8-.2 1.5-.1 2.1 0 .6.2 1.1.5 1.5.9s.6.9.7 1.5 0 1.3-.3 1.9-.8 1.1-1.6 1.5l3.4 3.7-2.5.5zm-4.2-5.1l1.7-.3c.5-.1.9-.3 1.1-.6s.3-.7.2-1.2-.3-.8-.6-1-.8-.3-1.3-.2l-1.7.3.6 3zm14.1-6.9c.9.3 1.6.8 2.3 1.5.6.7 1 1.6 1.2 2.6s.1 2-.2 2.9-.8 1.6-1.6 2.2c-.7.6-1.6 1-2.5 1.2-1 .2-1.9.1-2.8-.2s-1.6-.8-2.3-1.5c-.6-.7-1-1.6-1.2-2.6s-.1-2 .2-2.8c.3-.9.8-1.6 1.6-2.2.7-.6 1.6-1 2.5-1.2.9-.3 1.9-.2 2.8.1m-4 2.4c-.4.4-.7.8-.9 1.4s-.2 1.2-.1 1.8c.1.7.4 1.2.7 1.7.4.5.8.8 1.3 1s1.1.2 1.7.1 1.1-.4 1.6-.7c.4-.4.7-.8.9-1.4s.2-1.2.1-1.9-.4-1.2-.7-1.7c-.4-.5-.8-.8-1.3-1s-1.1-.2-1.7-.1a4.77 4.77 0 0 0-1.6.8m11.8 4.6l3.3-.6.3 1.5-5.4 1.1-1.9-10.3 2.1-.4zm6.8-1.3l3.3-.6.3 1.6-5.4 1-1.9-10.3 2.1-.4z"/></g><path d="M507.9 409.6l-1-5.3 12.2-5.6 128-58.4H532.4l-6.1 2.8-65 29.7c-2.7 1.2-3.9 4.4-2.6 7.1l4.4 9.5 7.3 16 2.5.9 6.5 34.3 2.7 14 1.9 10.3c.5 2.9 3.4 4.8 6.3 4.3l.4-.1 28 148.9 13.2 69.6c2.6 13.7 16 22.8 29.7 20.2l89.9-17 51.8-318.3-195.4 37.1z" fill="#bda2a2"/><path d="M52.5 380.2l-1-1.2 1 1.2zM29 351.4l9.9 12.2-9.9-12.2m-3.4-4.3l1.2 1.5-.9-1.1c-.1-.1-.2-.3-.3-.4" class="Ad"/><path d="M235.2 411.4c-.2-.1-.3-.2-.5-.3-.4-.2-1-.7-1.5-1.2l-1.4-1.7c-.1-.1-.2-.2-.2-.3s0-.3.4-.1c.2.1.3.2.5.3l-1-1.3-20.5-25.7c-.3-.1-.7-.2-1-.4-.4-.2-1-.7-1.5-1.2l-1.4-1.7c-.1-.1-.2-.2-.2-.3s0-.3.4-.1c.3.1.5.3.8.4.1.1.2.1.3.2l-1.1-1.5c-9.3-5.5-38.1-16.3-118.9-12.7-30.7 1.4-53.5-5.3-64.3-18.6l1.9 2.3.3.3 1.4 1.7.1.1-.8-1 .8 1 .1.1 1.3 1.6c.2.3.5.6.7.9l19.9 24.6c-.3-.3-.5-.6-.8-.9l-10.1-12.4L51.5 379l-1.2-1.5c.2.3.4.5.6.8l1.4 1.7c.1.1.1.2.2.2l1.3 1.6c10.7 13.2 33.6 19.9 64.3 18.6 78.8-3.5 108.2 6.7 118.2 12.3l-1.1-1.3zM62.4 364.2c.9.1 1.8.3 2.7.4 1.5.2 2.8.6 3.2 1.1l1.4 1.7c.3.5-.5.7-1.9.5-.9-.1-1.8-.2-2.7-.4-1.4-.2-2.6-.7-3.1-1.2l-1.4-1.7c-.3-.5.4-.6 1.8-.4m-27.5-7.8c-.2 0-.6-.3-.9-.5l-1.5-1.2c-1.1-1-1.9-1.9-2-2l-1.4-1.7-.2-.2c.1.1.3.2.8.6l1.5 1.2c.5.4 1.6 1.2 2.1 1.9l1.4 1.7c.2.1.2.1.2.2m8.3 4.9c-.7-.3-1.3-.6-1.9-.9-1.1-.6-2-1.3-2.4-1.7l-1.4-1.7c-.1-.1-.1-.2-.1-.2.1-.1.1-.2 1.2.3.6.3 1.3.6 1.9.9.9.4 2 1.1 2.5 1.6l1.4 1.7.1.1c0 .1.1.6-1.3-.1m11.3 4c-.8-.2-1.6-.4-2.3-.7-1.4-.4-2.4-1.1-2.8-1.5l-1.4-1.7s0-.1-.1-.1c0-.1-.3-.6 1.5-.1l2.3.6c1 .3 2.4.8 2.9 1.4l1.4 1.7s0 .1.1.1c.2.4-.1.7-1.6.3m5.1 21.5c-.2 0-.6-.3-.9-.5l-1.5-1.2c-1.1-1-1.9-1.9-2-2l-1.4-1.7-.2-.2s.1 0 .8.6l1.5 1.2c.5.4 1.6 1.2 2.1 1.9l1.4 1.7c.2.1.2.1.2.2m8.3 5c-.7-.3-1.3-.6-1.9-.9-1.2-.6-2-1.3-2.4-1.7l-1.4-1.7c-.1-.1-.1-.2-.1-.2.1-.1.1-.2 1.2.3.6.3 1.3.6 1.9 1 .9.4 2 1.1 2.5 1.6l1.4 1.7.1.1c0-.1.2.4-1.3-.2m11.3 4l-2.3-.6c-1.2-.4-2.3-1-2.8-1.5l-1.4-1.7-.1-.1c-.1-.1-.3-.6 1.5-.1.8.2 1.5.4 2.3.7 1.1.3 2.4.8 2.9 1.4l1.4 1.7.1.1c.2.2-.1.4-1.6.1m3.9-27c-1 0-2.1 0-3.1-.1-1.6-.1-2.9-.4-3.4-.9l-1.4-1.7c-.3-.5.5-.7 2.1-.7 1 0 2 .1 3.1.1 1.7 0 3.1.4 3.5.8l1.4 1.7c.3.5-.6.8-2.2.8m118.7 6c.4.2.8.3 1.2.5.8.3 1.4.9 1.7 1.3l1.4 1.7c.1.1.1.2.2.3.1.2 0 .3-.6.1-.4-.2-.8-.3-1.2-.5-.6-.3-1.4-.8-1.9-1.3l-1.4-1.7c-.1-.1-.1-.1-.1-.2s-.1-.5.7-.2m-8.1-2.7c.6.2 1.2.4 1.8.5.9.3 1.8.8 2.2 1.3l1.4 1.7.1.1c.1.1.2.5-1 .2-.6-.2-1.2-.4-1.8-.5-1.1-.3-2-.8-2.4-1.3l-1.4-1.7s0-.1-.1-.1c-.2-.2 0-.5 1.2-.2m-11.3-2.7c.8.2 1.6.3 2.4.5 1.2.3 2.3.8 2.8 1.3l1.4 1.7s0 .1.1.1c0 .1.3.6-1.5.3-.8-.2-1.6-.3-2.4-.5-1.4-.3-2.6-.8-3-1.3l-1.4-1.7c-.4-.4.3-.6 1.6-.4m-14.8-2.3c1.1.1 2.1.3 3.1.4 1.6.2 3 .7 3.4 1.2l1.4 1.7c.3.4-.5.6-2.1.4-1-.1-2.1-.3-3.1-.4-1.8-.2-3.2-.7-3.7-1.2l-1.4-1.7c-.3-.4.7-.6 2.4-.4m-42-2.5c1.6 0 3.3 0 4.8.1 2.5.1 4.4.4 5 .9l1.4 1.7c.3.5-1.1.7-3.6.7-1.6 0-3.2 0-4.8-.1-2.7-.1-4.8-.4-5.3-.8l-1.4-1.7c-.3-.4 1.3-.8 3.9-.8m-33 33.7c-.9-.1-1.8-.2-2.7-.4-1.4-.2-2.6-.7-3.1-1.2l-1.4-1.7c-.3-.5.4-.6 1.8-.4.9.1 1.8.3 2.7.4 1.5.2 2.8.6 3.2 1.1l1.4 1.7c.3.4-.5.6-1.9.5m1.3-30.6l-1.4-1.7v-.2c.2-.2 1-.7 4.9-.9 2-.1 3.9-.1 5.8-.2 3-.1 5.3.2 5.9.7l1.4 1.7v.2c-.3.4-1.9.7-4.6.8-1.9.1-3.8.1-5.8.2-3.2.1-5.6-.1-6.2-.6m13.9 31.5c-1 0-2.1 0-3.1-.1-1.6-.1-3-.4-3.4-.9l-1.4-1.7c-.3-.5.5-.7 2.1-.7 1 0 2 0 3.1.1 1.7 0 3.1.4 3.5.8l1.4 1.7c.3.5-.6.8-2.2.8m22.9-.6c-1.9.1-3.8.1-5.8.2-3.3.1-5.7-.1-6.2-.6l-1.4-1.7v-.2c.2-.2 1-.7 4.9-.8 2-.1 3.9-.1 5.8-.2 3-.1 5.3.2 5.8.7l1.4 1.7v.2c-.3.3-1.9.6-4.5.7m16.4-30.9l-1.4-1.7c-.3-.5 1-.7 3.1-.6l4 .3c2 .2 3.7.6 4.2 1.1l1.4 1.7c.3.5-.8.7-2.8.5l-4-.3c-2.3-.1-4.1-.5-4.5-1m10.7 30.8c-1.6 0-3.2-.1-4.8-.1-2.7-.1-4.8-.4-5.3-.8l-1.4-1.7c-.2-.5 1.4-.8 4-.8 1.6 0 3.3 0 4.8.1 2.5.1 4.4.4 5 .9l1.4 1.7c.2.4-1.1.7-3.7.7m22.4 1l-4-.3c-2.2-.2-4-.6-4.4-1l-1.4-1.7c-.3-.5 1-.7 3.1-.6l4 .3c2 .2 3.7.6 4.2 1.1l1.4 1.7c.2.4-.8.6-2.9.5m18 1.8c-1-.1-2.1-.3-3.1-.4-1.8-.2-3.2-.7-3.7-1.2L190 398c-.3-.5.7-.6 2.4-.5 1.1.1 2.1.3 3.1.4 1.6.2 3 .7 3.4 1.2l1.4 1.7c.3.5-.5.7-2.1.5m14.1 2.4c-.8-.2-1.6-.3-2.4-.5-1.4-.3-2.6-.8-3-1.3l-1.4-1.7c-.3-.5.4-.6 1.7-.4.8.2 1.6.3 2.4.5 1.2.3 2.3.8 2.8 1.3l1.4 1.7s0 .1.1.1c0 .1.2.7-1.6.3m10.6 2.7c-.6-.2-1.2-.3-1.8-.5-1.1-.3-2-.8-2.4-1.3l-1.4-1.7s0-.1-.1-.1c-.2-.3 0-.5 1.2-.2.6.2 1.2.4 1.8.5.9.3 1.8.8 2.2 1.3l1.4 1.7.1.1c0 .2.1.5-1 .2m7.6 2.7c-.4-.2-.8-.3-1.2-.5-.7-.3-1.5-.8-1.9-1.3l-1.4-1.7c-.1-.1-.1-.1-.1-.2s-.1-.4.7-.1c.4.2.9.3 1.3.5.8.3 1.4.9 1.7 1.3l1.4 1.7c.1.1.1.2.2.3-.1.1-.1.3-.7 0" fill="#363d45"/><path d="M49 375.9c.2.3.5.6.8.9-.3-.3-.6-.6-.8-.9m-4.2-5.1l4.9 6-19.9-24.6c-.3-.3-.5-.6-.8-.9l15.8 19.5z" fill="#2a3038"/><path d="M49 375.9c.2.3.5.6.8.9l-4.2-5.1-.8-.9 4.2 5.1z" fill="#333a42"/><path d="M164.2 383.6l-11-13.5c-15.8-1-35.5-1.2-59.9-.2-27.5 1.2-48.7-4-60.5-14.7l15.8 19.5 4.1 5c11.8 10.6 33 15.9 60.5 14.7 24.4-1.1 44.1-.8 60 .2l-9-11z" fill="#2b3138"/><path d="M211.5 382.2c-6.3-3.5-20.4-8.9-49.6-11.5l11.2 13.7 8.8 10.8c29.3 2.6 43.3 8 49.6 11.5l-20-24.5z" fill="#2e363d"/><path d="M49.4 375.8c.4.5.6.9 1.5 2.2l1 1.5a3.04 3.04 0 0 1 .5.7l-2.2-2.7c-.4-.4-.7-.9-1.1-1.3-.4-.5-.7-1-1-1.5s-.4-.7-.4-.8c0 0 .1 0 .2.2l1.5 1.7zm-2.1-5.3c.4 1.2.3 1.3.2 1.3l-.2-.2L46 370c-.3-.4-.9-1.4-1.3-2.8l-.6-2.2c-.3-1.4 0-1.5.2-1.4l.1.1 1.4 1.7c.5.6.9 2.1 1 2.9.1.7.3 1.5.5 2.2m-1-11.9c-.1.7-.3 1.9-.8 1.4l-1.4-1.7c-.3-.5-.6-1.6-.5-3l.3-2.4c.2-1.2.7-1.8 1.1-1.4l1.4 1.7c.5.8.3 2.5.2 3-.2.8-.3 1.6-.3 2.4m3.6-12.4c-.3.6-1.1 2-1.6 1.4l-1.4-1.7c-.3-.5-.3-1.6.3-3l1.2-2.4c.7-1.2 1.5-1.8 1.9-1.4l1.4 1.7c.5.8-.4 2.5-.6 3-.5.8-.9 1.6-1.2 2.4m7.3-11.2c-.8.9-1.6 1.3-2 .9l-1.4-1.7c-.3-.5-.1-1.5.7-2.5L56 330c.8-.9 1.7-1.2 2.1-.8l1.4 1.7c.3.5 0 1.4-.8 2.4-.5.5-1 1.1-1.5 1.7m8.7-8.6c-1 .8-1.9 1-2.3.6l-1.4-1.7c-.3-.5.1-1.4 1-2.2l1.9-1.5c1-.8 2-1 2.5-.5l1.4 1.7c.3.5-.1 1.3-1.1 2.2-.8.4-1.4.9-2 1.4m10.5-7.3c-1.2.7-2.2.8-2.6.4l-1.4-1.7c-.3-.5.2-1.3 1.3-2l2.2-1.3c1.2-.6 2.3-.8 2.8-.3l1.4 1.7c.3.5-.2 1.2-1.4 1.9-.9.4-1.6.9-2.3 1.3m12.1-6c-1.4.5-2.5.6-2.9.2l-1.4-1.7c-.3-.5.3-1.2 1.6-1.8l2.5-1c1.3-.5 2.6-.5 3-.1l1.4 1.7c.3.5-.3 1.1-1.7 1.7-.9.3-1.7.6-2.5 1m13.5-4.7c-1.5.4-2.7.3-3.1-.1l-1.4-1.7c-.3-.5.4-1.1 1.8-1.5l2.7-.7c1.5-.3 2.8-.3 3.2.2l1.4 1.7c.3.5-.4 1-1.9 1.4l-2.7.7m14.6-3.1c-1.6.2-2.9.1-3.3-.4l-1.4-1.7c-.3-.5.5-1 2-1.2 1-.2 2-.3 2.9-.4 1.6-.2 3 0 3.4.5l1.4 1.7c.3.5-.5.9-2.1 1.2a15.04 15.04 0 0 0-2.9.3m14.5-1.5c-1.4.1-2.5-.2-3-.7l-1.4-1.7c-.3-.5.4-.9 1.7-1l2.5-.1c1.3 0 2.5.3 3 .7l1.4 1.7c.3.5-.3.8-1.7.9l-2.5.2m13.2-.6c-1.4.1-2.5-.2-3-.7l-1.4-1.7c-.3-.5.3-.8 1.7-.9.8 0 1.7-.1 2.5-.2 1.3-.1 2.5.2 2.9.6l1.4 1.7c.3.5-.3.9-1.6 1l-2.5.2m15.3-1.5c-1.8.2-3.3.1-3.8-.4l-1.4-1.7c-.3-.5.7-.9 2.5-1.2l3.4-.5c1.8-.3 3.3-.1 3.7.3l1.4 1.7c.3.5-.7 1-2.4 1.3l-3.4.5m16.9-3.1c-1.7.4-3.1.3-3.6-.2l-1.4-1.7c-.3-.5.6-1 2.2-1.5 1-.2 2.1-.5 3.1-.8 1.7-.4 3-.4 3.5.1l1.4 1.7c.3.5-.5 1.1-2.1 1.5-1 .4-2.1.7-3.1.9m15.4-4.4c-1.5.5-2.8.5-3.3 0l-1.4-1.7c-.3-.5.5-1.1 2-1.7l2.8-1c1.5-.5 2.7-.6 3.2-.1l1.4 1.7c.3.5-.4 1.2-1.9 1.7-.9.5-1.8.8-2.8 1.1m14-5.4c-1.4.6-2.6.7-3 .2l-1.4-1.7c-.3-.5.4-1.2 1.7-1.9l2.5-1.2c1.4-.6 2.5-.7 2.9-.3l1.4 1.7c.3.5-.3 1.3-1.6 1.9-.8.5-1.6.9-2.5 1.3m12.6-6.4c-1.2.7-2.3.8-2.8.4l-1.4-1.7c-.3-.5.2-1.3 1.5-2l2.3-1.3c1.2-.7 2.2-.9 2.7-.4l1.4 1.7c.3.5-.2 1.3-1.4 2-.8.4-1.6.9-2.3 1.3m11.1-7.1c-1.1.7-2.1.9-2.5.5l-1.4-1.7c-.3-.5.2-1.3 1.2-2.1l2-1.4c1.1-.7 2-.9 2.4-.5l1.4 1.7c.3.5-.1 1.4-1.1 2.1l-2 1.4m9.6-7.6c-.9.8-1.8 1-2.3.6l-1.4-1.7c-.3-.5 0-1.4.9-2.2l1.7-1.5c.9-.8 1.7-1 2.2-.6l1.4 1.7c.3.5 0 1.4-.9 2.2-.4.5-1 1-1.6 1.5m8.2-7.9c-.8.8-1.6 1.1-2 .6l-1.4-1.7c-.3-.5-.1-1.4.7-2.2.5-.5.9-1 1.4-1.6.8-.8 1.5-1 1.9-.6l1.4 1.7c.4.5.1 1.4-.6 2.2l-1.4 1.6m6.8-8.1c-.6.8-1.3 1.1-1.7.6l-1.4-1.7c-.3-.5-.2-1.4.4-2.3.4-.5.8-1 1.1-1.6.6-.8 1.2-1.1 1.6-.6l1.4 1.7c.4.5.2 1.4-.3 2.2l-1.1 1.7m6.1-9.6c-.7 1.2-1.4 1.8-1.9 1.4l-1.4-1.7c-.3-.5-.1-1.7.5-3l1.2-2.3c.6-1.3 1.3-1.8 1.7-1.4l1.4 1.7c.4.5.2 1.7-.4 3l-1.1 2.3m5.2-12.3c-.4 1.2-1 1.8-1.4 1.4l-1.4-1.7c-.3-.5-.3-1.7.1-3l.7-2.4c.4-1.3.8-1.8 1.2-1.4l1.4 1.7c.4.6.4 1.7.1 3-.3.8-.5 1.6-.7 2.4m2.3-12.2c-.1 1.2-.5 1.8-.9 1.4l-1.4-1.7c-.4-.6-.5-1.9-.4-3 .1-.8.1-1.6.1-2.3.1-1.3.3-1.7.7-1.3l1.4 1.7c.3.4.7 1.5.6 3l-.1 2.2m-.4-12c.2 1.7-.2 1.4-.3 1.4l-.1-.1-1.4-1.7c-.4-.6-.8-1.9-.9-2.9l-.4-2.3c-.3-1.5 0-1.4.1-1.4l.1.1 1.4 1.7c.4.5.8 1.5 1.1 2.9.2.8.3 1.5.4 2.3m-3.2-11.5c.3.8.4 1.2.3 1.3-.1 0-.1 0-.2-.1l-1.4-1.7c-.5-.7-1.2-2.3-1.4-2.8l-.9-2.1-.5-1.3c.1 0 .1.1.2.2l1.4 1.7c.3.4 1 1.4 1.6 2.8.3.5.6 1.3.9 2M24.6 345.4c.4.5.6.9 1.5 2.2l1 1.5a3.04 3.04 0 0 1 .5.7l-2.2-2.7-1.1-1.3c-.4-.5-.7-1-1-1.5s-.4-.7-.4-.8c0 0 .1 0 .2.2l1.5 1.7zm-2-5.3c.4 1.2.3 1.3.2 1.3s-.1 0-.2-.2l-1.4-1.7c-.3-.4-.9-1.4-1.3-2.8l-.6-2.2c-.3-1.4 0-1.5.2-1.4l.1.1L21 335c.5.7.9 2.2 1 2.9l.6 2.2m-1.1-11.9c-.1.7-.3 1.9-.8 1.3l-1.4-1.7c-.3-.5-.6-1.6-.5-3l.3-2.4c.2-1.2.7-1.8 1.1-1.4l1.4 1.7c.5.8.3 2.5.2 3l-.3 2.5m3.6-12.4c-.6 1.3-1.2 1.8-1.6 1.4l-1.4-1.7c-.3-.5-.3-1.6.3-3l1.2-2.4c.7-1.2 1.5-1.8 1.9-1.4l1.4 1.7c.4.6-.1 2-.6 3l-1.2 2.4m7.4-11.2c-.8.9-1.6 1.3-2 .8l-1.4-1.7c-.3-.5-.1-1.5.7-2.5l1.5-1.7c.8-.9 1.7-1.2 2.1-.8l1.4 1.7c.3.5 0 1.4-.8 2.4l-1.5 1.8m8.7-8.6c-1 .8-1.9 1-2.3.6l-1.4-1.7c-.3-.5.1-1.4 1-2.2l1.9-1.5c1-.8 2-1 2.5-.5l1.4 1.7c.3.5-.1 1.3-1.1 2.2-.8.4-1.4.9-2 1.4m10.4-7.4c-1.2.7-2.2.8-2.6.4l-1.4-1.7c-.3-.5.2-1.3 1.3-2l2.2-1.3c1.2-.6 2.3-.8 2.8-.3l1.4 1.7c.3.5-.2 1.2-1.4 1.9l-2.3 1.3m12.1-6c-1.4.5-2.5.6-2.9.2l-1.4-1.7c-.3-.5.3-1.2 1.6-1.8l2.5-1c1.3-.5 2.6-.5 3-.1l1.4 1.7c.3.5-.3 1.1-1.7 1.7l-2.5 1m13.5-4.6c-1.5.4-2.7.3-3.2-.1l-1.4-1.7c-.3-.5.4-1.1 1.8-1.5l2.7-.7c1.5-.3 2.8-.3 3.2.2l1.4 1.7c.3.5-.4 1-1.9 1.4l-2.6.7m14.7-3.2c-1.6.2-2.9.1-3.3-.4l-1.4-1.7c-.3-.5.5-1 2-1.3 1-.2 2-.3 2.9-.4 1.6-.2 3 0 3.4.5l1.4 1.7c.3.5-.5.9-2.1 1.2l-2.9.4m14.5-1.5c-1.4.1-2.5-.2-3-.7L102 271c-.3-.5.3-.9 1.7-1l2.5-.1c1.3 0 2.5.3 3 .7l1.4 1.7c.3.5-.4.8-1.7.9l-2.5.1m13.1-.5c-1.3.1-2.5-.2-3-.7l-1.4-1.7c-.3-.5.3-.8 1.7-.9.8 0 1.7-.1 2.5-.2 1.3-.1 2.5.2 2.9.6l1.4 1.7c.3.5-.3.9-1.6 1l-2.5.2m15.4-1.5c-1.8.2-3.3.1-3.8-.4l-1.4-1.7c-.3-.5.7-.9 2.5-1.2l3.4-.5c1.8-.3 3.3-.1 3.7.3l1.4 1.7c.3.5-.7 1-2.4 1.3l-3.4.5m16.9-3.1c-1.7.4-3.1.3-3.6-.2l-1.4-1.7c-.3-.5.6-1 2.2-1.5 1-.2 2.1-.5 3.1-.8 1.7-.4 3-.4 3.5.1l1.4 1.7c.3.5-.6 1.1-2.1 1.5-1.1.4-2.1.6-3.1.9m15.4-4.4c-1.5.5-2.8.5-3.3.1l-1.4-1.7c-.3-.5.5-1.1 2-1.7l2.8-1c1.5-.5 2.7-.6 3.2-.1l1.4 1.7c.3.5-.4 1.2-1.9 1.7-.9.4-1.9.7-2.8 1m14-5.5c-1.4.6-2.6.7-3 .2l-1.4-1.7c-.3-.5.4-1.2 1.7-1.9l2.5-1.2c1.4-.6 2.5-.7 2.9-.3l1.4 1.7c.3.5-.3 1.3-1.6 1.9-.8.6-1.7 1-2.5 1.3m12.6-6.3c-1.2.7-2.3.8-2.8.4l-1.4-1.7c-.3-.5.3-1.3 1.5-2 .8-.4 1.5-.9 2.2-1.3 1.2-.7 2.3-.8 2.7-.4l1.4 1.7c.3.5-.2 1.3-1.4 2l-2.2 1.3m11.1-7.1c-1.1.7-2.1.9-2.5.5l-1.4-1.7c-.3-.5.2-1.3 1.2-2.1l2-1.4c1.1-.8 2-.9 2.4-.5l1.4 1.7c.3.5-.1 1.4-1.1 2.1l-2 1.4m9.6-7.6c-.9.8-1.8 1-2.3.6l-1.4-1.7c-.3-.5 0-1.4.9-2.2l1.7-1.5c.9-.8 1.7-1 2.2-.6l1.4 1.7c.3.5 0 1.4-.9 2.2l-1.6 1.5m8.2-8c-.8.8-1.6 1.1-2 .6l-1.4-1.7c-.3-.5-.1-1.4.7-2.2.5-.5.9-1 1.4-1.6.8-.8 1.5-1.1 1.9-.6l1.4 1.7c.3.5.1 1.4-.6 2.2-.4.6-.9 1.1-1.4 1.6m6.7-8.1c-.6.8-1.3 1.1-1.7.6l-1.4-1.7c-.3-.5-.2-1.4.4-2.3.4-.5.8-1 1.1-1.6.6-.8 1.2-1.1 1.6-.6l1.4 1.7c.4.5.2 1.4-.3 2.3-.3.6-.7 1.1-1.1 1.6m6.2-9.6c-.7 1.2-1.4 1.8-1.9 1.3l-1.4-1.7c-.3-.5-.1-1.7.6-3l1.2-2.3c.7-1.3 1.3-1.8 1.7-1.4l1.4 1.7c.4.5.2 1.8-.4 3l-1.2 2.4m5.1-12.2c-.4 1.2-1 1.8-1.4 1.4L238 199c-.3-.5-.3-1.7.1-3l.7-2.4c.4-1.3.8-1.8 1.2-1.4l1.4 1.7c.3.5.5 1.6.1 3l-.8 2.5m2.4-12.3c-.1 1.2-.5 1.8-.9 1.3l-1.4-1.7c-.4-.6-.5-1.9-.4-3 .1-.8.1-1.6.1-2.3.1-1.3.3-1.7.7-1.3l1.4 1.7c.3.5.7 1.6.6 3l-.1 2.3m-.4-12c.2 1.7-.2 1.4-.3 1.4l-.1-.1-1.4-1.7c-.4-.6-.8-1.9-.9-2.9l-.4-2.3c-.3-1.5 0-1.5.1-1.4l.1.1 1.4 1.7c.4.5.8 1.5 1.1 2.9l.4 2.3m-3.2-11.5c.3.7.4 1.2.3 1.3-.1 0-.1 0-.2-.1l-1.4-1.7c-.5-.7-1.2-2.3-1.4-2.8l-.9-2.1-.5-1.3c.1 0 .1.1.2.2l1.4 1.7c.4.5 1 1.6 1.6 2.8.2.6.6 1.3.9 2zm-8.5-13.9l2.4 3.2c.3.4.8 1.1.8 1.2l-.2-.2-1.4-1.7-1.9-2.7-1.5-2c-.2-.3-.5-.6-.7-.9l2.5 3.1c0-.1 0-.1 0 0m3.6 4.6l-2.5-3.3-5-6.1c.9 1 1.7 2.1 2.5 3.3 13.2 18.5 13 41.5-.6 63.1-15.5 24.6-51.3 51.1-107 56.2-4.7.4-9.6.7-14.6.8a176.12 176.12 0 0 0-10.4.6c-31.2 2.8-57.3 15.3-71.1 34.2-8.7 12-10.8 25-5.8 35.8 1 2.3 2.4 4.4 4 6.4l29.7 36.6c-1.6-2-2.9-4.1-4-6.4-5-10.8-2.9-23.8 5.8-35.8 13.8-18.9 39.9-31.4 71.1-34.2a176.12 176.12 0 0 1 10.4-.6c5-.1 9.9-.4 14.6-.8 55.7-5.1 91.5-31.6 107-56.2 13.6-21.6 13.8-44.6.6-63.1-.8-1.1-1.6-2.2-2.5-3.3l-22.2-27.2z" class="Ad"/><path d="M254.5 178.9l-2.5-3.3-6.5-8.1s-.1-.1-.1-.2L232.1 151l2.5 3.3c8.6 12.1 11.5 26.2 8.6 40.6l19.9 24.6c3-14.4.1-28.5-8.6-40.6" fill="#2d343b"/><g fill="#333a42"><path d="M190 271.6l10.7 13.2-10.7-13.2zm56.6-65.6l-4.7-5.7c-1.7 5.8-4.4 11.5-7.9 17.2-9.7 15.4-27.5 31.7-53.1 42.8l9.2 11.3 10.7 13.2c25.7-11.2 43.4-27.4 53.1-42.8 3.6-5.7 6.2-11.4 7.9-17.2L246.6 206zM81.7 298.1l7.1 8.7-7.1-8.7z"/><path d="M184 274.1l-9.3-11.4C161 268.1 145 272 127 273.6c-4.7.4-9.6.7-14.6.8a176.12 176.12 0 0 0-10.4.6c-11.9 1.1-23.1 3.6-33.1 7.3l12.8 15.8 7.1 8.8c10-3.7 21.2-6.2 33.1-7.3a176.12 176.12 0 0 1 10.4-.6c5-.1 9.9-.4 14.6-.8 18-1.6 34-5.5 47.8-10.9L184 274.1zm-100.8 35L72 295.4l-8.8-10.8c-13.7 5.9-24.8 14.3-32.3 24.6-8.7 12-10.8 25-5.8 35.8 1 2.3 2.4 4.4 4 6.4l15.8 19.4 4.2 5.1c-1.6-2-2.9-4.1-4-6.4-5-10.8-2.9-23.8 5.8-35.8 7.4-10.3 18.6-18.6 32.3-24.6"/></g><path d="M258.7 247.9c13.6-21.6 13.8-44.6.6-63.1-.8-1.1-1.6-2.2-2.5-3.3l-4.3-5.2c-.2-.2-.3-.5-.5-.7l-6.5-8.1s-.1-.1-.1-.2L232.1 151l-1-1.3a4.44 4.44 0 0 1 .8 1.1c.5.7 1 1.3 1.5 2 .3.4.8 1.1.8 1.2l-.2-.2-1.4-1.7c-.7-.9-1.3-1.8-1.9-2.7-.5-.7-1-1.4-1.5-2-.2-.3-.4-.5-.6-.8l-1.5-1.8c.9 1 1.7 2.1 2.5 3.3 13.2 18.5 13 41.5-.6 63.1-11.6 18.4-34.6 37.9-68.8 48.7l27.1 37.3c35.6-10.5 59.5-30.5 71.4-49.3m2.8-8.2c-.4.8-.8 1.6-1.2 2.3-.7 1.2-1.4 1.8-1.9 1.4l-1.4-1.7c-.3-.5-.1-1.7.5-3 .4-.8.8-1.6 1.2-2.3.6-1.3 1.3-1.8 1.7-1.4l1.4 1.7c.4.6.3 1.7-.3 3m4.6-12.3c-.2.8-.4 1.6-.7 2.4-.4 1.2-1 1.8-1.4 1.4l-1.4-1.7c-.3-.5-.3-1.7.1-3 .2-.8.5-1.6.7-2.4.4-1.3.8-1.8 1.2-1.4l1.4 1.7c.4.6.4 1.8.1 3m1.9-12.2c0 .8-.1 1.5-.1 2.3-.1 1.2-.5 1.8-.9 1.3l-1.4-1.7c-.4-.6-.5-1.9-.4-3 .1-.8.1-1.6.1-2.3.1-1.3.3-1.7.7-1.3l1.4 1.7a7.61 7.61 0 0 1 .6 3m-3.6-16.6l.1.1 1.4 1.7c.4.5.8 1.5 1.1 2.9.2.8.3 1.5.4 2.3.2 1.7-.2 1.4-.3 1.4l-.1-.1-1.4-1.7c-.4-.6-.8-1.9-.9-2.9-.1-.8-.3-1.5-.4-2.3-.3-1.5 0-1.5.1-1.4m-4.3-11.3c.1 0 .1.1.2.2l1.4 1.7c.3.4 1 1.4 1.6 2.8l.9 2.1c.3.8.4 1.2.3 1.3-.1 0-.1 0-.2-.1l-1.4-1.7c-.5-.7-1.2-2.3-1.4-2.8l-.9-2.1c-.6-1.2-.6-1.3-.5-1.4m-8.6 61.1c.4-.5.8-1 1.1-1.6.6-.8 1.2-1.1 1.6-.6l1.4 1.7c.4.5.2 1.4-.3 2.2-.4.5-.7 1-1.1 1.6-.6.8-1.3 1.1-1.7.6l-1.4-1.7c-.4-.5-.2-1.4.4-2.2m-6.8 8.1c.5-.5.9-1 1.4-1.6.8-.8 1.5-1 1.9-.6l1.4 1.7c.3.5.1 1.4-.6 2.2-.5.5-.9 1-1.4 1.6-.8.8-1.6 1.1-2 .6l-1.4-1.7c-.3-.5 0-1.4.7-2.2m-5.1-91.7l-1.4-1.7c-.5-.7-1.2-2.3-1.4-2.8l-.9-2.1c-.5-1.2-.5-1.2-.5-1.3.1 0 .1.1.2.2l1.4 1.7c.4.5 1 1.6 1.6 2.8l.9 2.1c.3.7.4 1.2.3 1.3-.1 0-.1 0-.2-.2m.4 7c-.1-.8-.3-1.5-.4-2.3-.3-1.5 0-1.5.1-1.4l.1.1 1.4 1.7c.4.5.8 1.5 1.1 2.9.2.8.3 1.5.4 2.3.2 1.7-.2 1.4-.3 1.4l-.1-.1-1.4-1.7c-.4-.6-.7-1.9-.9-2.9m-7.1 36.5c.4-.8.8-1.6 1.2-2.3.7-1.3 1.3-1.8 1.7-1.4l1.4 1.7c.4.5.2 1.8-.4 3l-1.2 2.4c-.7 1.2-1.4 1.8-1.9 1.3l-1.4-1.7c-.3-.6-.1-1.7.6-3M170 262.8c-.9.3-1.9.7-2.8 1-1.5.5-2.8.5-3.3.1l-1.4-1.7c-.3-.5.5-1.1 2-1.7.9-.3 1.9-.6 2.8-1 1.5-.5 2.7-.6 3.2-.1l1.4 1.7c.3.5-.5 1.2-1.9 1.7m13.7-5.6c-.8.4-1.7.8-2.5 1.2-1.4.6-2.6.7-3 .2l-1.4-1.7c-.3-.5.4-1.2 1.7-1.8.9-.4 1.7-.8 2.5-1.2 1.4-.6 2.5-.7 2.9-.3l1.4 1.7c.4.5-.3 1.2-1.6 1.9m5.9-6.5c-.3-.5.3-1.3 1.5-2 .8-.4 1.5-.9 2.2-1.3 1.2-.7 2.3-.8 2.7-.4l1.4 1.7c.3.5-.2 1.3-1.4 2l-2.2 1.3c-1.2.7-2.3.8-2.8.4l-1.4-1.7zm5.1 42.6c-.9.3-1.9.7-2.8 1-1.5.5-2.8.5-3.3 0l-1.4-1.7c-.3-.5.5-1.1 2-1.7.9-.3 1.9-.6 2.8-1 1.5-.5 2.7-.6 3.2-.1l1.4 1.7c.3.5-.4 1.2-1.9 1.8m7.6-47.9l-1.4-1.7c-.3-.5.2-1.3 1.2-2.1l2-1.4c1.1-.8 2-1 2.4-.5l1.4 1.7c.3.5-.1 1.4-1.1 2.1a14.29 14.29 0 0 1-2 1.4c-1 .7-2 .9-2.5.5m6.2 42.2c-.8.4-1.7.8-2.5 1.2-1.4.6-2.6.7-3 .2l-1.4-1.7c-.3-.5.4-1.2 1.7-1.9.9-.4 1.7-.8 2.5-1.2 1.4-.6 2.5-.7 2.9-.3l1.4 1.7c.3.6-.3 1.4-1.6 2m7.7-51.8c-.6.5-1.1 1-1.7 1.5-.9.8-1.8 1-2.3.6l-1.4-1.7c-.3-.5 0-1.4 1-2.2.6-.5 1.1-1 1.7-1.5.9-.8 1.7-1 2.2-.6l1.4 1.7c.3.5 0 1.4-.9 2.2m3.8-9.8c.5-.5.9-1 1.4-1.6.8-.8 1.5-1.1 1.9-.6l1.4 1.7c.3.5.1 1.4-.6 2.2-.5.5-.9 1-1.4 1.6-.8.8-1.6 1.1-2 .6l-1.4-1.7c-.3-.4 0-1.3.7-2.2m.7 55.1l-2.2 1.3c-1.2.7-2.3.8-2.8.4l-1.4-1.7c-.3-.5.2-1.3 1.5-2 .8-.4 1.5-.9 2.3-1.3 1.2-.7 2.2-.9 2.7-.4l1.4 1.7c.2.5-.3 1.3-1.5 2m8.7-59.9c-.6.8-1.3 1.1-1.7.6l-1.4-1.7c-.3-.5-.2-1.4.4-2.3.4-.5.8-1 1.1-1.6.6-.8 1.2-1.1 1.6-.6l1.4 1.7c.4.5.2 1.4-.3 2.3-.3.6-.7 1.1-1.1 1.6m2.1 52.7a14.29 14.29 0 0 1-2 1.4c-1.1.7-2.1.9-2.5.5l-1.4-1.7c-.3-.5.2-1.3 1.2-2.1l2-1.4c1.1-.7 2-.9 2.4-.5l1.4 1.7c.4.5 0 1.3-1.1 2.1m9.9-76.9c-.2.8-.4 1.6-.7 2.4-.4 1.2-1 1.8-1.4 1.4L238 199c-.3-.5-.3-1.7.1-3 .2-.8.5-1.6.7-2.4.4-1.3.8-1.8 1.2-1.4l1.4 1.7c.2.6.4 1.7 0 3.1m.8-8.5l-1.4-1.7c-.4-.6-.5-1.9-.4-3 .1-.8.1-1.6.1-2.3.1-1.3.3-1.7.7-1.3l1.4 1.7c.3.5.7 1.6.6 3 0 .8-.1 1.5-.1 2.3-.1 1.1-.5 1.7-.9 1.3m-5.2 79.8l-1.4-1.7c-.3-.5 0-1.4.9-2.2.6-.5 1.1-1 1.7-1.5.9-.8 1.7-1 2.2-.6l1.4 1.7c.3.5 0 1.4-.9 2.2-.6.5-1.1 1-1.7 1.5-.9.8-1.8 1-2.2.6" fill="#d5dbe0"/><path d="M36.7 302.4l-4.9-6.2c-1.9 1.9-3.6 4-5.2 6.1l4.9 6.2c1.5-2.1 3.3-4.1 5.2-6.1m-7.6 1.3c-.3-.5-.1-1.5.7-2.5l1.5-1.7c.8-.9 1.7-1.2 2.1-.8l1.4 1.7c.3.5 0 1.4-.8 2.4l-1.5 1.7c-.8.9-1.6 1.3-2 .8l-1.4-1.6zm29.6 29.6l-1.5 1.7c-.8.9-1.6 1.3-2 .9l-1.4-1.7c-.3-.5-.1-1.5.7-2.5L56 330c.8-.8 1.5-1.1 2-.8l-1.6-2c-1.9 2-3.6 4-5.2 6.1l4.7 5.9c1.6-2.1 3.3-4.2 5.2-6.1l-1.6-1.9c.2.4-.1 1.2-.8 2.1" class="Ae"/><path d="M31.4 308.5l19.8 24.8c1.6-2.1 3.3-4.2 5.2-6.1l-19.8-24.8-5.2 6.1" fill="#49535e"/><path d="M38.5 292.7l1.9-1.5c1-.8 2-1 2.5-.5l1.4 1.7c.3.5-.1 1.3-1.1 2.2l-1.9 1.5c-.1.1-.2.1-.3.2l1.1 1.4c4.1-3.4 8.6-6.5 13.6-9.2l-1.1-1.4c-.2.1-.3.2-.5.4-.7.4-1.5.8-2.2 1.3-1.2.7-2.2.8-2.6.4l-1.4-1.7c-.3-.5.2-1.3 1.3-2 .7-.4 1.5-.8 2.2-1.3l.6-.3-1.3-1.6c-5 2.7-9.5 5.8-13.6 9.2l1.2 1.5c0-.2.1-.2.2-.3m40.1 25.1l-2.2 1.3c-1.2.7-2.2.8-2.6.4l-1.4-1.7c-.3-.5.2-1.3 1.3-2l2.2-1.3c.1-.1.2-.1.3-.1l-1-1.3c-5 2.7-9.5 5.8-13.5 9.2l1.1 1.3c.1-.2.3-.3.5-.5.6-.5 1.2-1 1.9-1.5 1-.8 2-1 2.5-.5l1.4 1.7c.3.5-.1 1.3-1.1 2.2-.6.5-1.3 1-1.9 1.5-.2.2-.4.3-.6.4l1.1 1.4c4-3.4 8.5-6.5 13.5-9.3l-1.1-1.3c-.3 0-.3.1-.4.1" class="Ae"/><path d="M61.6 322.3c4-3.4 8.6-6.5 13.5-9.2l-19.7-24.7c-5 2.7-9.5 5.8-13.6 9.2l19.8 24.7z" fill="#49535e"/><path d="M253.2 177l2.3 2.8.2.2-2.5-3zM230 148.4l-1.5-1.9 1.5 1.9z" class="Ad"/><path d="M256.8 181.5l-1.3-1.6c-.3-.4-.7-.8-1-1.2L227.1 145c-9-11.1-20.6-18.5-33.8-19.2-3.9-.2-8.6.6-12.7 1.5-28.7 6-55.2 30.6-67.4 62.9l1 1.5c.1-.2.1-.4.2-.6.3-.8.6-1.6 1-2.4.6-1.3 1.1-1.8 1.5-1.4l1.1 1.7c.3.6.1 1.6-.4 3-.3.8-.7 1.6-1 2.4-.1.3-.2.4-.3.6l18.4 26.9c.1-.2.1-.4.2-.7.3-.8.6-1.6 1-2.4.6-1.3 1.1-1.8 1.5-1.4l1.1 1.7c.3.6.1 1.6-.4 3-.3.8-.7 1.6-1 2.4-.1.3-.2.4-.3.6l1 1.4c12.3-32.3 38.7-56.9 67.5-62.9 4-.8 11.9-2 17.6-1.1 13.2 1.4 24.9 7.9 33.9 19m-11.6-12.6c.6.5 1.2 1 1.8 1.6 1.1 1 2 2 2.3 2.3l1.4 1.7c.1.1.1.1.1.2-.1-.1-.4-.3-1-.9-.6-.5-1.2-1.1-1.8-1.6-.8-.7-1.9-1.6-2.3-2.2l-1.4-1.7c-.1-.1-.1-.1-.1-.2-.1 0 0 0 1 .8m-10-6.5c.7.3 1.3.7 2 1 1.2.7 2.1 1.4 2.5 1.9l1.4 1.7c.1.1.1.1.1.2-.1 0-.2.1-1.3-.5-.7-.4-1.3-.7-2-1-.4-.2-1.9-1-2.5-1.7l-1.4-1.7-.1-.1c-.1-.2.1-.4 1.3.2m-8.8-3.3c1.3.4 2.3 1 2.7 1.4l1.4 1.7s0 .1.1.1c.1.1.2.6-1.4.1-.7-.2-1.5-.4-2.2-.5-1-.2-2.2-.7-2.7-1.2l-1.4-1.7s0-.1-.1-.1c-.2-.3.1-.6 1.5-.3.6.1 1.3.3 2.1.5m-5.9-20.7c.6.5 1.2 1 1.8 1.6 1.4 1.3 2.2 2.3 2.3 2.3l1.4 1.7c.1.1.1.1.1.2-.1-.1-.3-.2-1-.9-.6-.5-1.2-1.1-1.8-1.6-.8-.7-1.9-1.6-2.3-2.1l-1.4-1.7c-.1-.1-.1-.1-.1-.2-.1 0 0-.1 1 .7m-10-6.4c.7.3 1.3.7 2 1 1.2.7 2.1 1.4 2.5 1.9l1.4 1.7c.1.1.1.1.1.2-.1 0-.2.1-1.3-.5-.7-.4-1.3-.7-2-1-.4-.2-1.9-1-2.5-1.7l-1.4-1.7-.1-.1c-.1-.2.1-.4 1.3.2m-11.1-3.9c.7.2 1.5.3 2.2.5 1.3.4 2.3 1 2.7 1.4l1.4 1.7s0 .1.1.1c.1.1.3.6-1.4.1-.7-.2-1.5-.4-2.2-.5-1-.2-2.2-.7-2.7-1.2l-1.4-1.7s0-.1-.1-.1c-.1-.2-.1-.6 1.4-.3m-75.9 51.5c-.4.8-.8 1.5-1.3 2.3-.7 1.2-1.3 1.7-1.7 1.3l-1.1-1.7c-.3-.5-.1-1.7.6-2.9.4-.8.8-1.5 1.3-2.3.7-1.2 1.4-1.7 1.7-1.3l1.1 1.7c.4.6.1 1.6-.6 2.9m7.3-11.2l-1.5 2.1c-.8 1.1-1.5 1.6-1.9 1.2l-1.1-1.7c-.3-.5 0-1.6.8-2.8l1.5-2.1c.8-1.1 1.6-1.5 1.9-1.1l1.1 1.7c.3.6-.1 1.6-.8 2.7m8.3-10c-.6.6-1.1 1.2-1.7 1.8-.9 1-1.7 1.3-2.1.9l-1.1-1.7c-.3-.5.1-1.5 1-2.5.6-.6 1.1-1.2 1.7-1.8.9-.9 1.8-1.3 2.1-.9l1.1 1.7c.3.6-.1 1.5-1 2.5m7.4-7.2c-1 .8-1.9 1.1-2.2.7l-1.1-1.7c-.3-.5.2-1.4 1.1-2.3.6-.5 1.2-1.1 1.9-1.6 1-.8 1.9-1 2.3-.6l1.1 1.7c.3.5-.2 1.3-1.2 2.2l-1.9 1.6m-2.4 58.4c-.4.8-.8 1.5-1.3 2.3-.7 1.2-1.3 1.7-1.7 1.3l-1.1-1.7c-.3-.5-.1-1.7.6-2.9.4-.8.8-1.5 1.2-2.3.7-1.2 1.4-1.7 1.7-1.3l1.1 1.7c.4.6.2 1.7-.5 2.9m8.8-67.2c-.3-.5.2-1.3 1.3-2 .7-.4 1.3-.9 2-1.3 1.1-.6 2-.8 2.4-.3l1.1 1.7c.3.5-.2 1.2-1.3 1.9a22.63 22.63 0 0 0-2 1.3c-1.1.7-2 .9-2.4.4l-1.1-1.7zm-1.6 56.1l-1.5 2.1c-.8 1.1-1.5 1.6-1.9 1.2l-1.1-1.7c-.3-.5 0-1.6.8-2.8l1.5-2.1c.8-1 1.6-1.5 2-1.1l1.1 1.7c.3.5-.1 1.5-.9 2.7m8.4-10.1c-.6.6-1.1 1.2-1.7 1.8-.9 1-1.7 1.3-2.1.9l-1.1-1.7c-.3-.5.1-1.5 1-2.5.6-.6 1.1-1.2 1.7-1.8.9-.9 1.8-1.3 2.1-.8l1.1 1.7c.3.5-.1 1.4-1 2.4m7.3-50.7c-1.2.5-2.1.6-2.5.1l-1.1-1.7c-.3-.5.3-1.2 1.4-1.7.7-.3 1.4-.6 2.1-1 1.1-.5 2.1-.5 2.5 0l1.1 1.7c.3.5-.3 1.1-1.4 1.6-.7.3-1.4.6-2.1 1m1.9 42l-1.9 1.6c-1 .8-1.9 1.1-2.2.7l-1.2-1.7c-.3-.5.2-1.4 1.1-2.3.6-.5 1.2-1.1 1.9-1.6 1-.8 1.9-1 2.3-.6l1.1 1.7c.4.5-.1 1.3-1.1 2.2m6.7-46.5l-1.1-1.7c-.3-.5.3-1.1 1.4-1.4l2.2-.6c1.2-.3 2.2-.1 2.6.3l1.1 1.7c.3.5-.3 1-1.5 1.3l-2.2.6c-1.2.3-2.2.3-2.5-.2m3.4 39.2a22.63 22.63 0 0 0-2 1.3c-1.1.7-2 .9-2.4.4l-1.1-1.7c-.3-.5.3-1.3 1.3-2 .7-.4 1.3-.9 2-1.3 1.1-.6 2-.8 2.4-.3l1.1 1.7c.3.5-.2 1.2-1.3 1.9m8.3-41.9l-1.1-1.7c-.3-.5.4-.9 1.6-1.1.8-.1 1.6-.2 2.4-.2 1.4-.1 2.4.3 2.7.7l1.1 1.7c.2.5-.3.8-1.6.9-.8.1-1.6.1-2.4.2-1.3.1-2.4-.1-2.7-.5m2.4 36.3c-.7.3-1.4.6-2.1 1-1.1.5-2.1.6-2.5.1l-1.1-1.7c-.3-.5.3-1.2 1.4-1.7.7-.3 1.4-.7 2.1-1 1.1-.5 2.1-.5 2.5 0l1.1 1.7c.3.4-.3 1-1.4 1.6m11.2-4l-2.2.6c-1.2.3-2.2.3-2.5-.2l-1.1-1.7c-.3-.5.3-1.1 1.4-1.4l2.2-.6c1.1-.3 2.2-.1 2.6.3l1.2 1.7c.1.5-.5 1-1.6 1.3m12-2c-.8.1-1.6.1-2.4.2-1 .1-2.3 0-2.7-.5l-1.1-1.7c-.3-.5.4-.9 1.6-1.1.8-.1 1.6-.2 2.4-.2 1.2-.1 2.3.2 2.7.7l1.1 1.7c.3.5-.3.8-1.6.9" class="Ae"/><path d="M252.1 175.6l-6.7-8.2-13.3-16.3c-9-11.1-20.6-18.5-33.8-19.2-3.9-.2-9.4.5-13.6 1.4l-3.9.9 11.9 17.4.7 1 2.3 3.3 1.7 2.5c1.3-.4 2.6-.7 3.9-.9 3.9-.8 11.8-1.7 17-1 13.1 1.5 24.8 8 33.8 19.1" fill="#414d57"/><path d="M188.3 153.9l-12.5-18.2c-25.2 8.7-47.6 31.5-58.6 60.4l16.6 24.2c11-28.9 33.4-51.7 58.6-60.4l-4.1-6z" fill="#3b464f"/><path d="M121.6 186.3l16.4 24.6c2.8-5.6 5.9-10.9 9.5-15.9l-16.4-24.5a118.11 118.11 0 0 0-9.5 15.8m35.6-3.1l-16.4-24.5-5.9 6.7 16.4 24.5 5.9-6.7" fill="#353f47"/><path d="M198.3 131.9c-2.5-.1-5.7.1-8.7.6l16.4 24.3c3.1-.4 6.8-.6 10-.5L199.6 132c-.4-.1-.9-.1-1.3-.1m10.1 1.9l16 23.8 5.4 1.7-15.5-23.1c-1.9-.9-3.9-1.8-5.9-2.4" fill="#566673"/><path d="M187.8 127.7l2.4-.2c1.4-.1 2.4.3 2.7.7l1.1 1.7c.2.5-.3.8-1.6.9l-2.4.2h-1.4l1 1.4c3-.4 6.2-.7 8.7-.6.4 0 .9.1 1.3.1l-4.1-6c-.7-.1-1.5-.2-2.2-.2-2.4-.1-5.1.2-7.8.6l1.2 1.7c.2-.1.6-.2 1.1-.3m18.2 29l1 1.5c.3-.2.8-.4 1.4-.4l2.4-.2c1.2-.1 2.3.2 2.7.7l1.1 1.7c.2.5-.3.8-1.6.9l-2.4.2c-.6.1-1.2 0-1.8-.1l1.1 1.6c3-.4 6.6-.7 9.9-.6l-3.9-5.8c-3.1-.1-6.8.2-9.9.5m23.9 2.6c-1.8-.7-3.6-1.2-5.4-1.7l.8 1.2 1.1.3c1.3.4 2.3 1 2.7 1.4l1.4 1.7s0 .1.1.1c.1.1.2.6-1.4.1-.6-.1-1.1-.3-1.7-.4l.8 1.2c1.8.4 3.6.9 5.3 1.6l-3.7-5.5zm-15.6-23.1l-.4-.6c-.2-.1-.5-.3-.7-.4-.4-.2-1.9-1-2.5-1.7l-1.4-1.7-.1-.1c-.1-.2.1-.4 1.3.2.5.2 1 .5 1.4.7l-1.3-1.9c-2-1.1-4-2-6.1-2.8l3.9 5.7 5.9 2.6" fill="#647280"/><path d="M113.5 322.3c-101.1 50.2-142.3 172.9-92.1 274s172.9 142.3 274 92.1 142.3-172.9 92.1-274c-50.3-101.1-172.9-142.3-274-92.1m171.2 344.6c-89.3 44.4-197.6 7.9-242-81.3-44.4-89.3-7.9-197.6 81.3-242 89.3-44.4 197.6-7.9 242 81.3 44.4 89.3 8 197.7-81.3 242" fill="#b3b3bf"/><path d="M323.4 446.2c32.7 65.7 5.9 145.5-59.9 178.1-65.7 32.7-145.5 5.8-178.1-59.9-32.7-65.7-5.9-145.5 59.9-178.1 65.7-32.7 145.5-5.9 178.1 59.9" fill="#2e363d"/><path d="M267.6 473.9c17.3 34.9 3.1 77.2-31.8 94.5s-77.2 3.1-94.5-31.8-3.1-77.2 31.8-94.5c34.8-17.3 77.1-3 94.5 31.8" fill="#242b30"/><path d="M121.9 339.3c-91.6 45.6-129 156.8-83.5 248.5 45.6 91.7 156.8 129.1 248.5 83.5 91.7-45.5 129.1-156.8 83.5-248.5s-156.8-129-248.5-83.5m8.4 16.8c28.4-14.1 62.8-2.5 76.9 25.8 14.1 28.4 2.5 62.8-25.8 76.9-28.4 14.1-62.8 2.5-76.9-25.8-14.1-28.4-2.6-62.8 25.8-76.9M44.4 546.2c-14.1-28.4-2.5-62.8 25.8-76.9 28.4-14.1 62.8-2.5 76.9 25.8 14.1 28.4 2.5 62.8-25.8 76.9-28.4 14.1-62.8 2.6-76.9-25.8M239 631c-10.1 30-42.6 46.2-72.6 36.1s-46.2-42.6-36.1-72.6 42.6-46.2 72.6-36.1C233 568.5 249.1 601 239 631m-54.9-115.6c-5.6-11.2-1-24.8 10.2-30.4s24.9-1 30.4 10.2c5.6 11.2 1 24.9-10.2 30.4-11.2 5.6-24.8 1-30.4-10.2m172.3 57.3c-10.1 30-42.6 46.2-72.6 36.1s-46.2-42.6-36.1-72.6 42.6-46.2 72.6-36.1 46.2 42.6 36.1 72.6m-48.6-93.3c-28.4 14.1-62.8 2.5-76.9-25.8-14.1-28.4-2.5-62.8 25.8-76.9 28.4-14.1 62.8-2.5 76.9 25.8 14.1 28.4 2.6 62.8-25.8 76.9" fill="#a5a5b0"/><path d="M44.6 589.8c-45.6-91.7-8.2-202.9 83.5-248.5 44.8-22.3 94.3-24.7 138.4-10.7-45.7-16.2-97.7-14.7-144.6 8.6-91.6 45.7-129 156.9-83.5 248.6 23.3 46.9 63.8 79.5 110 94.2-43.6-15.6-81.6-47.4-103.8-92.2" fill="#858599"/><path d="M221.3 320.7c59.8 7.3 114.9 43.5 143.7 101.5 45.6 91.7 8.2 202.9-83.5 248.5-31.9 15.9-66.2 21.7-99.3 18.6 34.7 4.2 71-1.3 104.7-18 91.7-45.5 129.1-156.8 83.5-248.5-29.7-59.7-87.3-96.4-149.1-102.1" class="AY"/><path d="M147.2 495.1c1.4 2.9 2.6 5.8 3.5 8.8l9-39.2c-22.4 1.5-44.5-10.4-55.2-31.7-14.1-28.4-2.5-62.8 25.8-76.9 17.7-8.8 37.8-7.6 53.8 1.4l6.7-29.3c-22.1 1.7-44.2 7.6-65.3 18.1-6.1 3-12 6.4-17.6 10L83.1 464.7c25.2-5.7 52 6.3 64.1 30.4M129 598.8l9-39.3a56.7 56.7 0 0 1-16.7 12.5c-20.6 10.2-44.3 6.9-61.2-6.5l-7.3 32c15.8 26.1 37.5 46.8 62.5 61.2l13.7-59.9m37.4 68.3c-7.8-2.6-14.7-6.8-20.4-12l-3.7 16.4c10.8 4 21.9 7 33.3 8.9l2.4-10.7c-3.9-.4-7.8-1.3-11.6-2.6m26-215.4l-24.2 106.2c11-3.3 23.1-3.4 34.8.6.1 0 .2.1.4.1l7.2-31.4a22.84 22.84 0 0 1-26.4-11.8c-5.6-11.2-1-24.9 10.2-30.4 8.5-4.2 18.3-2.6 25 3.2l9.2-40.2c-8.1-21.7-2.2-45.8 14-61.3l11.8-51.7c-11-3.2-22.3-5.4-33.8-6.4L208 383.7c11 23.8 4 51.7-15.6 68m62.3 135.2l-21.4 93.6a173.51 173.51 0 0 0 23.2-5.5l16.2-71.2c-7.2-4.3-13.4-10.1-18-16.9m67.6-200L325 375c-5.9-5.4-12.1-10.4-18.5-15l-3.3 14.6c7 2.7 13.5 6.9 19.1 12.3m-48.9 117.8c7.2-4.1 15.3-6.7 23.7-7.4l3.4-14.9a56.54 56.54 0 0 1-22.6 2.8l-4.5 19.5z" fill="#b6b6c2"/><path d="M295.3 658.5l-3.7 9 6.8 7-9-3.7-7 6.8 3.8-9-6.9-7 9 3.8zm-29.2 13.3l.2 6.6 6.2 2.5-6.7.1-2.5 6.2-.1-6.6-6.2-2.5 6.6-.2z" class="AY"/><path d="M542.2 300.2c-1.4 0-3 0-4.7-.1-7-.4-17.3-3.1-18.7-11.4v-.1c2 2.7 5.9 5.7 12.4 3.7 10.7-3.4 33.9-6.3 27.7 9.8-7 4.8-9.4-.9-16.7-1.9" class="Af"/><path d="M365.3 69.4c5.8-12.1 20.1-6.7 26.5 4.1s9.5 25.3 3.2 36.1c-12.7 18.1-46.1 14.4-55.6-3.6-7.9-14.4 6.4-32.5 22.2-37.2 1.2-.1 2.5.1 3.7.6" class="AR"/><path d="M338.9 88.7c.4 1.4.9 2.8 1.7 4.2 9.5 18.1 42.9 21.7 55.6 3.6.8-1.4 1.5-2.9 2-4.5.7 6.2-.1 12.3-3.2 17.6-12.7 18.1-46.1 14.4-55.6-3.6-3.1-5.6-2.9-11.6-.5-17.3" class="AS"/><path d="M356.4 95c-7.5 5.6-1.2 12.8 5.9 16.8 1.4.8 2.7 1.4 3.8 2 5.6 1.6 10.8-.4 14.6-4.2 1-.9 1.8-2 2.6-3.1 6.8-9.5 5.3-25.8-5.9-27.6-6.4 0-11.1 7.2-16.6 13.5-1.4.8-3 1.6-4.4 2.6" class="AU"/><path d="M360 93.7c-1.6 1.4-3.2 1.4-3.2 3.2 0 7.2 4.8 9 9.5 10.8 7.9 1.8 14.3-3.6 17.5-10.8 1.6-3.6 1.6-10.8-1.6-14.4-7.9-7.2-14.3 3.6-19 8.7-1.1.8-2.2 1.6-3.2 2.5" class="AV"/><path d="M363 91.6c-1.5 1.8-3.1 5.4-1.5 7.2 3.2 3.6 7.9 1.8 12.7 1.8 7.9-1.8 7.9-14.4 3.2-18.1-4.8-3.6-9.5 1.8-12.4 6.7-.6.7-1.3 1.5-2 2.4" class="AW"/><path d="M602 110.6c-5.1-5.1-12.8-7.2-20.1-4.8-9.4 3.2-14.8 12.9-12.8 22.4-2.2 3.7-2.9 8.3-1.4 12.7 2.7 7.9 11.2 12.1 19.1 9.5 4.2-1.4 7.4-4.5 9-8.3 1.2-.5 2.3-1.1 3.3-1.8 2.8.7 5.8.7 8.7-.3 7.9-2.7 12.1-11.2 9.5-19.1-2.2-6.8-8.6-10.8-15.3-10.3" class="AR"/><path d="M603.5 127c-2.9 1-5.9 1-8.7.3-1 .7-2.2 1.3-3.3 1.8-1.6 3.8-4.8 6.9-9 8.3-5.6 1.9-11.5.3-15.4-3.5-.3 2.3-.2 4.7.6 7 2.7 7.9 11.2 12.1 19.1 9.5 4.2-1.4 7.4-4.5 9-8.3 1.2-.5 2.3-1.1 3.3-1.8 2.8.7 5.8.7 8.7-.3 7.9-2.7 12.1-11.2 9.5-19.1-.8-2.3-2.1-4.3-3.7-5.9-.8 5.3-4.5 10.1-10.1 12" class="AS"/><path d="M466.3 86.1c1.9 1.8 1.5 5.2 4.7 5.1 1.3.5 2.2 2.6 3.6 3.1 8.3 1.6 17.9 11.5 12.1 18.1-11.5 16-33.4 33.7-48.7 8.2-.6-.9-1.1-2-1.7-3-.7-2-1.3-4.2-1.8-6.5-.2-1.1-.5-2.3-.6-3.5-.8-15.3 12.3-21.7 20.9-23.5 1.9-.4 5.5-1.1 6.6.4.3.4 4.5 1.2 4.9 1.6" class="AR"/><g class="AS"><path d="M461.6 119.6c-3.4 2.2-7.2 1.6-10.7-.4-1.2-.7-2.3-1.5-3.4-2.4-1.6-2.2-3.4-4.2-5.2-6.2-.9-1-1.7-2-2.6-3-.1-3-2.8-10.8-1.3-14.5-3.1 2.6-5 10-5.3 13.8-.1 1.1.2 2.3.4 3.5.5 2.3 1.3 4.7 2.8 7.2l1.5 2.7c15.3 26.1 37.4 8.3 50.5-6.7 1.9-2.2 1.3-8.4-2.5-12.1-4.4 11-15.4 9.6-21.4 16.4-.9.6-1.9 1.2-2.8 1.7"/><path d="M452.6 117.3c-1.3 3.2-4.4.9-9.3-1.5-3.1-2.3-5.6-6.5-5-8.5 3.6.3 6.6-3.5 13.5 6.7.9 1.4 1.2 2.6.8 3.3m.5-10.2s.8 6.3 3.9 7.5c3.2 1.2 4.5 1.1 4.5 1.1s3.7-.3 2.2-2.8c-1.5-2.6-5.6-7.6-10.6-5.8"/></g><path d="M462.1 87.7c.3.9-2.4 2.5-6 3.7-3.6 1.1-7.5.7-7.7-.2-.3-.9 2-3.3 5.6-4.4 3.6-1.2 7.8 0 8.1.9" class="AT"/><path d="M623.3 554.3l.5 103-85.3 49.8 5.8-39.6zm-345.9-63.6L243.5 589l86.5 47.4-5.8-39.6z" fill="#9e775a"/><path d="M623.3 551.8l.5 103-85.3 49.8 5.8-39.6zm-345.9-63.6l-33.9 98.3 86.5 47.4-5.8-39.6z" fill="#a38276"/><path d="M368.9 186.7c-3.7-6-10.5-9.7-18-9-9.7 1-16.9 9-17.1 18.5-2.9 3-4.6 7.2-4.1 11.7.8 8.1 8 14 16.1 13.2 4.3-.4 8-2.7 10.4-5.9 1.2-.2 2.4-.6 3.6-1 2.5 1.3 5.3 1.9 8.3 1.7 8.1-.8 14-8 13.2-16.1-.7-6.8-5.9-12.1-12.4-13.1" class="Ag"/><path d="M366.8 202.6c-3 .3-5.9-.3-8.3-1.7-1.1.4-2.3.8-3.6 1-2.4 3.2-6.1 5.5-10.4 5.9a14.38 14.38 0 0 1-13.8-6.8c-.8 2.1-1.2 4.4-.9 6.8.8 8.1 8 14 16.1 13.2 4.3-.4 8-2.7 10.4-5.9 1.2-.2 2.4-.6 3.6-1 2.5 1.3 5.3 1.9 8.3 1.7 8.1-.8 14-8 13.2-16.1-.2-2.4-1-4.6-2.2-6.5-2.1 5.1-6.7 8.9-12.4 9.4" class="Ah"/><path d="M589.5 222.3c6.7-2.8 9.8-10.5 7-17.2-1.8-4.2-5.5-7-9.8-7.8 1.4-2.9 1.6-6.4.3-9.5-2.5-5.9-9.3-8.7-15.2-6.2-2 .8-3.6 2.1-4.8 3.7-2.9-.9-6-.8-9 .4-6.7 2.8-9.8 10.5-7 17.2.6 1.5 1.5 2.7 2.5 3.8.1 1.4.5 2.9 1.1 4.3a14.91 14.91 0 0 0 19.7 8c.1 0 .2-.1.3-.1 3.7 4.1 9.6 5.6 14.9 3.4" fill="#f6e4cc"/><path d="M589.5 222.3a13.21 13.21 0 0 0 7.8-9.7c-.6.4-1.3.7-2 1-5.3 2.2-11.2.7-14.9-3.4-.1 0-.2.1-.3.1-7.7 3.2-16.5-.4-19.7-8-.6-1.4-.9-2.9-1.1-4.3-1-1.1-1.9-2.4-2.5-3.8-1-2.5-1.3-5.1-.8-7.5-5.3 3.4-7.6 10.1-5 16.1.6 1.5 1.5 2.7 2.5 3.8.1 1.4.5 2.9 1.1 4.3a14.91 14.91 0 0 0 19.7 8c.1 0 .2-.1.3-.1 3.7 4.2 9.6 5.7 14.9 3.5" class="Aa"/><path d="M548.8 166c1.2 2.3-.1 5.3 2.9 6.2 1.1.9 1.4 3.1 2.5 4 7.3 4 13.5 16 6.1 20.6-15.5 11.6-41.3 21.9-48.1-6.6-.3-1.1-.5-2.2-.7-3.3-.1-2.1 0-4.4.2-6.7.1-1.1.3-2.3.4-3.5 3.7-14.6 17.9-16.8 26.5-16 1.9.2 5.5.6 6.1 2.3.1.5 3.8 2.5 4.1 3" class="AR"/><g class="AS"><path d="M534.5 196.1c-3.8 1.1-7.3-.6-10-3.5-.9-1-1.7-2.1-2.5-3.2-.9-2.6-2-5-3.1-7.3-.5-1.2-1.1-2.4-1.5-3.6.8-2.8.6-10.9 3-14-3.7 1.5-7.6 7.9-9 11.4-.4 1.1-.5 2.2-.6 3.4-.2 2.3-.1 4.8.5 7.5l.6 2.9c6.7 29 32.7 18.8 49.5 8.5 2.5-1.5 3.7-7.5 1.2-12.1-7.4 9.1-17.3 4.5-25 9.2-1 .4-2.1.6-3.1.8"/><path d="M526.7 191.3c-2.2 2.6-4.4-.4-8.3-4.1-2.2-3-3.3-7.7-2.2-9.4 3.3 1.3 7.2-1.4 10.7 10.3.5 1.5.5 2.7-.2 3.2m3.5-9.4s-1.1 6.1 1.5 8.2c2.6 2 3.9 2.4 3.9 2.4s3.6.8 2.9-2c-.7-2.9-3-8.8-8.3-8.6"/></g><path d="M544.4 166.3c0 .9-3 1.7-6.7 1.7s-7.2-1.6-7.2-2.5 2.8-2.5 6.5-2.5 7.4 2.4 7.4 3.3" class="AT"/><path d="M431 173.8c2.3-8-.4-18.5-7.6-21.4a8.3 8.3 0 0 0-2.1-.6c-4.9-1-10 1.2-12.7 5.5-5.2 0-10.1 3.1-12.1 8.2-.7 1.7-.9 3.4-.9 5.1a10.68 10.68 0 0 0 .3 2.5c2 8.8 10.4 11.3 16.8 6.1-.8 6.5 9.2 7 13.8 6.3 3.8-1.1 11.5-7.5 6.2-11.5-.5-.2-1-.2-1.7-.2" class="AZ"/><g class="AX"><path d="M430.6 180.6c-4.6.8-14.7.3-13.8-6.3-6.3 5.2-14.8 2.8-16.8-6.1-.2-.8-.3-1.6-.3-2.5 0-1.7.2-3.4.9-5.1.1-.3.3-.6.4-.9-1.9 1.4-3.5 3.3-4.4 5.7-.7 1.7-.9 3.4-.9 5.1a10.68 10.68 0 0 0 .3 2.5c2 8.8 10.4 11.3 16.8 6.1-.8 6.5 9.2 7 13.8 6.3 2.5-.7 6.6-3.7 7.7-6.8-1.3 1-2.7 1.7-3.7 2"/><path d="M407.9 169.5c-.3 2.7-.6 6.2-4.1 5.9-2.8-.6-3.2-3.9-2.7-6.7 1.6-2.4 4.6-3.5 6.4-.8.3.5.4 1 .4 1.6m4.6-6.8c-.1 1.6-.3 3.6-2.4 3.4-1.6-.3-1.9-2.2-1.5-3.9.9-1.4 2.7-2.1 3.7-.5.1.4.2.7.2 1"/></g><path d="M456.3 153.9c-.1-.2-.1-.4-.2-.6-3-8.8-12.6-13.5-21.5-10.4-7.6 2.6-12.1 10.2-11.2 17.9-4.3 4.8-6.1 11.5-4.4 18.1-1.1 2.5-1.3 5.4-.4 8.2 2 5.9 8.5 9 14.4 7 .6-.2 1.1-.5 1.7-.7 3.2.5 6.5.3 9.7-.8 5.4-1.9 9.4-5.9 11.6-10.7 3.1 1.2 6.6 1.3 10 .1 7.7-2.7 11.8-11.1 9.2-18.8-2.7-7.9-11.2-12-18.9-9.3" class="AR"/><path d="M444.8 181.6c-2.4-.6-4.4-1.8-11.2-2.5-6.7-.7-8.7-15.8 6.8-19.4 15.5-3.5 19.9 6.2 15.2 10.8-4.6 4.6-4.7 12.6-10.8 11.1" class="AU"/><path d="M446.7 179.7c-1.8-.4-3.3-1.3-8.3-1.8s-6.5-11.8 5.1-14.4 14.9 4.6 11.4 8c-3.6 3.4-3.7 9.4-8.2 8.2" class="AV"/><path d="M465.7 176.5c-3.4 1.2-6.9 1-10-.1-2.1 4.8-6.2 8.8-11.6 10.7-3.2 1.1-6.6 1.3-9.7.8-.5.3-1.1.5-1.7.7-5.9 2-12.3-1.1-14.4-7-.1-.2-.1-.4-.2-.6-.4 1.9-.3 4 .4 5.9 2 5.9 8.5 9 14.4 7 .6-.2 1.1-.5 1.7-.7 3.2.5 6.5.3 9.7-.8 5.4-1.9 9.4-5.9 11.6-10.7 3.1 1.2 6.6 1.3 10 .1 7.2-2.5 11.3-10 9.6-17.2-.7 5.3-4.3 10-9.8 11.9m-47.3-4.6c-.1.9-.1 1.7-.1 2.6.1-.3.2-.7.4-1l-.3-1.6" class="Aa"/><path d="M487.2 150.9c-.7-.7-1.5-1.3-2.4-1.9-8.6-5.8-20.4-3.6-26.2 5.1-.1.2-.2.4-.3.5-4.5-1.2-9.4.5-12.2 4.6a11.3 11.3 0 0 0 2.9 15.5c-1.5.8-2.9 2-4 3.6-3.4 5.1-2.1 11.9 3 15.4 2.9 2 6.5 2.4 9.6 1.4 4.5 2.2 10.1.9 13-3.4.7-1 1.1-2.1 1.4-3.2 3.5 1 7.5-.3 9.7-3.5.7-1.1 1.2-2.3 1.4-3.5 2.7-1.4 5-3.5 6.8-6.1l.6-.9c4.7.8 9.7-1.1 12.5-5.3 3.8-5.7 2.4-13.4-3.3-17.3-3.9-2.7-8.7-2.9-12.5-1" class="AR"/><path d="M501.9 159.8c-3.2 4.8-8.9 7-14.2 6-.2.3-.4.7-.6 1-2.1 3-4.8 5.4-7.8 7-.2 1.4-.7 2.8-1.6 4-2.5 3.7-7 5.1-11 3.9-.3 1.2-.9 2.5-1.6 3.6-3.3 4.9-9.7 6.5-14.8 3.9-1.9.6-3.9.8-5.8.5.8 1.5 2 2.8 3.5 3.8 2.9 2 6.5 2.4 9.6 1.4 4.5 2.2 10.1.9 13-3.4.7-1 1.1-2.1 1.4-3.2 3.5 1 7.5-.3 9.7-3.5.7-1.1 1.2-2.3 1.4-3.5 2.7-1.4 5-3.5 6.8-6.1l.6-.9c4.7.8 9.7-1.1 12.5-5.3 2.7-3.9 2.8-8.9.7-12.8-.5 1.3-1 2.5-1.8 3.6" class="AS"/><path d="M381.1 172.2c-6.6.8-12.2 5.7-13.5 12.6-1.6 8.4 4 16.6 12.4 18.2h.2c-.1 7.4 5.1 14.1 12.7 15.5 8.4 1.6 16.6-4 18.2-12.4.3-1.7.3-3.3.1-4.9 3.5-3 6.1-7.2 7-12.1 2.1-11.4-5.3-22.4-16.7-24.5-8-1.6-15.8 1.6-20.4 7.6" class="AR"/><path d="M410.9 180c-.9 4.9-3.5 9.1-7 12.1.2 1.6.2 3.3-.1 4.9-1.6 8.4-9.7 14-18.2 12.4-1.7-.3-3.3-.9-4.7-1.7 1.6 5.4 6.1 9.7 12 10.8 8.4 1.6 16.6-4 18.2-12.4.3-1.7.3-3.3.1-4.9 3.5-3 6.1-7.2 7-12.1 1.6-8.3-2-16.4-8.5-21 1.5 3.6 2 7.7 1.2 11.9" class="AS"/><use xlink:href="#D" class="AU"/><path d="M392.4 203.5c-2.4-.5-3.9-4-1.1-9.8 2.7-5.8 7.6-5 10.8-9.3s5.5 7.9-2.3 12-3.7 7.8-7.4 7.1" class="AV"/><path d="M391.6 201.4c-1.6-.3-2.5-2.6-.7-6.3 1.7-3.7 4.9-3.2 6.9-6s3.6 5.1-1.5 7.7c-5 2.6-2.4 5-4.7 4.6" class="AW"/><path d="M378.4 175c1.3.9.8 4-1.2 7-2 2.9-4.7 4.6-6 3.7s-.8-4 1.2-7c2-2.9 4.7-4.6 6-3.7" class="AT"/><path d="M453.6 182.7c-6-6.1-15.1-8.6-23.7-5.6-11.1 3.8-17.5 15.3-15.1 26.5a18.18 18.18 0 0 0-1.7 15c3.2 9.3 13.3 14.3 22.6 11.2 5-1.7 8.7-5.4 10.6-9.8 1.4-.6 2.7-1.3 3.9-2.2 3.3.9 6.8.8 10.3-.3 9.3-3.2 14.3-13.3 11.2-22.6-2.6-8-10.2-12.8-18.1-12.2" class="AR"/><path d="M455.4 202.1c-3.5 1.2-7 1.2-10.3.3-1.2.8-2.5 1.6-3.9 2.2-1.9 4.5-5.7 8.1-10.6 9.8-6.6 2.2-13.5.4-18.2-4.2-.4 2.7-.2 5.5.7 8.3 3.2 9.3 13.3 14.3 22.6 11.2 5-1.7 8.7-5.3 10.6-9.8 1.4-.6 2.7-1.3 3.9-2.2 3.3.9 6.8.8 10.3-.3 9.3-3.2 14.3-13.3 11.2-22.6-.9-2.8-2.5-5.1-4.4-7-.9 6.4-5.3 12.1-11.9 14.3" class="AS"/><path d="M336.6 227.8c-.5-6.6-4.7-12.8-11.3-15.4-8.6-3.4-18.2.2-22.4 8.2-3.8 1.3-7 4.1-8.6 8.1-2.8 7.2.7 15.3 7.8 18.1 3.8 1.5 7.9 1.2 11.3-.5 1.1.3 2.3.6 3.5.7 1.5 2.2 3.7 4 6.3 5 7.2 2.8 15.3-.7 18.1-7.8 2.4-6 .3-12.7-4.7-16.4" class="Ai"/><path d="M327.8 240.3c-2.7-1.1-4.8-2.8-6.3-5-1.2-.1-2.3-.3-3.5-.7-3.4 1.7-7.5 2-11.3.5-5.1-2-8.3-6.6-8.7-11.7-1.6 1.4-2.9 3.2-3.7 5.3-2.8 7.2.7 15.3 7.8 18.1 3.8 1.5 7.9 1.2 11.3-.5 1.1.3 2.3.6 3.5.7 1.5 2.2 3.7 4 6.3 5 7.2 2.8 15.3-.7 18.1-7.8.8-2.1 1.1-4.3.9-6.4-3.8 3.3-9.3 4.5-14.4 2.5" class="AX"/><path d="M493 168.4c5.7-10.8 19.6-6 25.7 3.7 6.2 9.6 9.3 22.5 3.1 32.1-12.4 16.1-44.8 12.9-54.1-3.2-7.7-12.9 6.2-28.9 21.6-33.1 1.3 0 2.5.1 3.7.5" class="AR"/><path d="M467.3 185.7c.4 1.3.9 2.5 1.6 3.7 9.3 16.1 41.7 19.3 54.1 3.2.8-1.3 1.5-2.6 2-4 .7 5.5-.1 10.9-3.1 15.6-12.4 16.1-44.8 12.9-54.1-3.2-3-4.9-2.8-10.3-.5-15.3" class="AS"/><path d="M484.3 191.2c-7.3 5-1.1 11.4 5.7 15 1.3.7 2.6 1.3 3.7 1.8 5.4 1.4 10.5-.4 14.2-3.7.9-.8 1.8-1.8 2.5-2.8 6.7-8.5 5.1-23-5.7-24.6-6.2 0-10.8 6.4-16.1 12-1.4.7-2.9 1.5-4.3 2.3" class="AU"/><path d="M487.8 190.1c-1.5 1.3-3.1 1.3-3.1 2.9 0 6.4 4.6 8 9.3 9.6 7.7 1.6 13.9-3.2 17-9.6 1.5-3.2 1.5-9.6-1.5-12.9-7.7-6.4-13.9 3.2-18.5 7.7-1.1.8-2.2 1.5-3.2 2.3" class="AV"/><path d="M490.8 188.2c-1.4 1.6-3 4.8-1.4 6.4 3.1 3.2 7.7 1.6 12.4 1.6 7.7-1.6 7.7-12.9 3.1-16.1s-9.3 1.6-12 5.9c-.8.7-1.5 1.4-2.1 2.2" class="AW"/><path d="M497.2 228c4.4-8.3 1.1-18.6-7.2-23a16.98 16.98 0 0 0-14.9-.4c-1.1-1.3-2.4-2.4-4-3.2-1.8-1-3.8-1.4-5.7-1.5-.9-2.9-3-5.5-5.9-7-5.8-3-12.9-.9-16.2 4.8-2.8.9-5.2 2.8-6.7 5.6-2.2 4.2-1.5 9.1 1.4 12.6a13.73 13.73 0 0 0 5.8 18.5c5.4 2.8 11.8 1.7 15.9-2.3 1 4.2 3.8 8 8 10.2 4.7 2.4 10 2.3 14.3.1 4 .7 8.2-1.3 10.2-5.1.7-1.4 1.1-3 1.1-4.5 1.7-1.4 2.9-3 3.9-4.8" class="AR"/><path d="M473.6 219.9c-5.2-4.5-10.2-13.9-18.2-11.6s-8.3 13.8-1.4 15.6c6.9 1.9 9.7.2 12.8 4.2 3.1 4.1 14.9-1.3 6.8-8.2" class="AU"/><path d="M471.1 221.7c-3.6-3.1-7-9.5-12.5-7.9s-5.7 9.4-.9 10.7 6.7.1 8.8 2.9 10.2-.9 4.6-5.7" class="AV"/><path d="M468.9 223.3c-2.2-1.9-4.3-5.9-7.7-4.9s-3.5 5.9-.6 6.7c3 .8 4.1.1 5.4 1.8s6.3-.6 2.9-3.6" fill="#b38044"/><path d="M485 236.8c-4.4 2.2-9.7 2.3-14.3-.1-4.2-2.2-7-6-8-10.2-4.1 4-10.5 5.1-15.9 2.3a13.73 13.73 0 0 1-5.8-18.5c-2.2-2.6-3.1-6.2-2.4-9.6-.7.7-1.3 1.6-1.8 2.5-2.2 4.2-1.5 9.1 1.4 12.6a13.73 13.73 0 0 0 5.8 18.5c5.4 2.8 11.8 1.7 15.9-2.3 1 4.2 3.8 8 8 10.2 4.7 2.4 10 2.3 14.3.1 4 .7 8.2-1.3 10.2-5.1.5-.9.8-1.9 1-2.9-2.3 2.1-5.4 3-8.4 2.5" class="AS"/><path d="M373.8 193.6c-8.2-1.6-18.4 2.1-20.6 9.5-.2.7-.3 1.4-.4 2.2-.5 5 2.1 9.9 6.6 12.2.5 5.2 4 9.8 9.3 11.3 1.7.5 3.5.6 5.1.4.8-.1 1.7-.3 2.5-.5 8.6-2.8 10.3-11.4 4.6-17.2 6.6.3 6.2-9.8 5-14.3-1.4-3.7-8.5-10.8-12-5.1-.2.4-.2.9-.1 1.5" class="AZ"/><g class="AX"><path d="M380.6 193.5c1.2 4.5 1.5 14.6-5 14.3 5.8 5.8 4.1 14.5-4.6 17.2-.8.2-1.6.4-2.5.5-1.7.2-3.4.1-5.1-.4l-.9-.3c1.6 1.8 3.6 3.2 6.1 3.9 1.7.5 3.5.6 5.1.4.8-.1 1.7-.3 2.5-.5 8.6-2.8 10.3-11.4 4.6-17.2 6.6.3 6.2-9.8 5-14.3-.9-2.4-4.2-6.3-7.4-7.1 1 1.2 1.8 2.5 2.2 3.5"/><path d="M371.5 217c2.7 0 6.3 0 6.3 3.6-.3 2.9-3.6 3.6-6.4 3.2-2.5-1.4-3.9-4.3-1.4-6.3.5-.2 1-.4 1.5-.5m-7.1-3.9c1.6 0 3.6 0 3.6 2.1-.2 1.6-2.1 2.1-3.7 1.9-1.4-.8-2.3-2.5-.8-3.7.3-.2.6-.3.9-.3"/></g><path d="M583.9 243.9c8.1-1.8 16-9.2 15.1-16.9a12.91 12.91 0 0 0-.5-2.1c-1.5-4.8-5.9-8.2-10.9-8.5-2.5-4.6-7.6-7.4-13-6.7-1.8.2-3.4.8-4.9 1.6a9.51 9.51 0 0 0-2 1.5c-6.8 6-4.9 14.6 2.7 17.6-6.1 2.4-1.8 11.5 1.1 15.1 2.8 2.9 12.1 6.5 13.1-.1-.1-.5-.4-1-.7-1.5" class="AZ"/><g class="AX"><path d="M577.7 246.7c-2.9-3.7-7.2-12.7-1.1-15.1-7.6-3.1-9.5-11.6-2.7-17.6.6-.5 1.3-1 2-1.5 1.5-.8 3.1-1.4 4.9-1.6.3 0 .7-.1 1-.1-2.2-1-4.6-1.5-7.2-1.1-1.8.2-3.4.8-4.9 1.6a9.51 9.51 0 0 0-2 1.5c-6.8 6-4.9 14.6 2.7 17.6-6.1 2.4-1.8 11.5 1.1 15.1 1.8 1.9 6.4 4.1 9.6 3.5-1.4-.7-2.6-1.5-3.4-2.3"/><path d="M576.6 221.5c-2.5 1.1-5.7 2.5-7.2-.8-.8-2.8 1.8-4.7 4.6-5.5 2.9.3 5.3 2.3 3.8 5.3-.3.4-.7.7-1.2 1m8.2.8c-1.4.6-3.3 1.4-4.2-.4-.5-1.6 1.1-2.7 2.7-3.2 1.7.2 3.1 1.4 2.2 3-.2.2-.5.4-.7.6"/></g><path d="M631 228.1c-1.1-7.3-6.1-13.7-13.6-16.1-9.7-3.1-20 1.7-24.1 10.7-4.1 1.7-7.4 5.1-8.8 9.6-2.6 8.1 1.9 16.8 10 19.4 4.3 1.4 8.8.7 12.4-1.4 1.3.3 2.6.5 3.9.5a14.43 14.43 0 0 0 7.4 5c8.1 2.6 16.8-1.9 19.4-10 2.1-6.8-.8-14.1-6.6-17.7" class="AR"/><path d="M622.3 242.5c-3-1-5.5-2.8-7.4-5-1.3 0-2.6-.2-3.9-.5-3.6 2.1-8.1 2.8-12.4 1.4-5.7-1.8-9.6-6.7-10.5-12.2-1.7 1.7-3 3.7-3.7 6.1-2.6 8.1 1.9 16.8 10 19.4 4.3 1.4 8.8.7 12.4-1.4 1.3.3 2.6.5 3.9.5a14.43 14.43 0 0 0 7.4 5c8.1 2.6 16.8-1.9 19.4-10 .8-2.4.9-4.8.5-7.2-4 4-9.9 5.7-15.7 3.9" class="AS"/><path d="M536.1 212.4c7.4-8.1 21.1-12.1 29.4-6 .8.6 1.5 1.3 2.1 2 4.5 4.9 5.5 12.2 2.5 18.1 3.6 5.9 3.4 13.6-1 19.3-1.4 1.9-3.2 3.4-5.1 4.5-1 .6-2 1-3 1.4-11.3 3.8-19.9-4.1-18.3-14.8-6.8 5.4-14.3-5.6-16.5-11.3-1.4-5.1.6-18.1 8.8-14.8.3.3.7.9 1.1 1.6" class="AZ"/><g class="AX"><path d="M528.8 217.6c2.3 5.7 9.8 16.8 16.5 11.3-1.6 10.7 7 18.6 18.3 14.8 1-.4 2.1-.8 3-1.4 1.9-1.1 3.7-2.6 5.1-4.5.3-.3.5-.7.8-1.1a17.8 17.8 0 0 1-3.4 8.9c-1.4 1.9-3.2 3.4-5.1 4.5-1 .6-2 1-3 1.4-11.3 3.8-19.9-4.1-18.3-14.8-6.8 5.4-14.3-5.6-16.5-11.3-.9-3.3-.4-10 2.3-13.4-.2 2.2-.1 4.2.3 5.6"/><path d="M556.9 235.6c-2.9 2.1-6.7 4.9-3.9 8.7 2.6 2.8 6.6 1 9.3-1.6 1.6-3.5.9-7.6-3.5-7.8-.6.1-1.3.3-1.9.7m4.4-9.8c-1.7 1.2-3.9 2.8-2.2 5 1.5 1.6 3.8.6 5.4-.9.9-2 .5-4.4-2-4.5-.4.1-.8.2-1.2.4"/></g><path d="M348.3 211.9c.9 1.7-.1 4 2.2 4.7.8.6 1 2.3 1.9 3 5.5 3 10.2 12.2 4.6 15.6-11.7 8.8-31.3 16.6-36.5-5-.2-.8-.4-1.6-.5-2.5-.1-1.6 0-3.3.2-5.1l.3-2.6c2.8-11.1 13.6-12.7 20.1-12.1 1.5.1 4.2.4 4.6 1.8 0 .3 2.9 1.9 3.1 2.2" class="AZ"/><g class="AX"><path d="M337.4 234.8c-2.9.8-5.5-.5-7.6-2.7-.7-.7-1.3-1.6-1.9-2.4-.7-2-1.5-3.8-2.3-5.6l-1.2-2.7c.6-2.2.4-8.3 2.3-10.6-2.8 1.1-5.8 6-6.8 8.6-.3.8-.4 1.7-.5 2.6-.2 1.8-.1 3.7.4 5.7.1.8.3 1.5.4 2.2 5.1 22 24.8 14.2 37.5 6.5 1.9-1.1 2.8-5.7.9-9.2-5.6 6.9-13.1 3.4-18.9 7-.7.2-1.5.4-2.3.6"/><path d="M331.5 231.1c-1.7 2-3.3-.3-6.3-3.1-1.7-2.3-2.5-5.9-1.7-7.2 2.5 1 5.5-1 8.1 7.8.4 1.2.4 2.1-.1 2.5m2.7-7.1s-.8 4.7 1.1 6.2c2 1.5 3 1.8 3 1.8s2.7.6 2.2-1.5c-.6-2.2-2.4-6.7-6.3-6.5"/></g><path d="M519.1 215.8c1.5 1.3 1.4 3.8 3.7 3.6 1 .3 1.8 1.8 2.8 2.2 6.2.8 13.9 7.7 9.9 12.9-7.8 12.5-23.3 26.7-35.9 8.4-.5-.7-.9-1.4-1.4-2.2-.6-1.5-1.2-3.1-1.7-4.8-.2-.8-.4-1.7-.6-2.6-1.3-11.4 8.2-16.8 14.5-18.5 1.4-.4 4-1.1 4.9 0 .3.3 3.5.7 3.8 1" class="AZ"/><g class="AX"><path d="M517.1 241c-2.4 1.8-5.3 1.5-8 .2-.9-.4-1.8-1-2.6-1.6-1.3-1.6-2.8-3-4.2-4.4l-2-2.1c-.2-2.2-2.6-7.9-1.6-10.7-2.2 2.1-3.2 7.7-3.3 10.5 0 .9.2 1.7.5 2.6.5 1.7 1.2 3.4 2.4 5.2.4.7.8 1.3 1.2 1.9 12.6 18.7 28.3 4.4 37.4-7.4 1.3-1.7.6-6.4-2.4-8.9-2.8 8.4-11 7.9-15.2 13.3-.8.5-1.5 1-2.2 1.4"/><path d="M510.3 239.7c-.8 2.4-3.2.9-7-.7-2.4-1.5-4.5-4.6-4.1-6.1 2.7 0 4.8-2.9 10.4 4.4.7 1 1 1.9.7 2.4m-.1-7.6s.9 4.7 3.3 5.4 3.4.6 3.4.6 2.8-.4 1.5-2.2-4.5-5.4-8.2-3.8"/></g><path d="M573.4 226.9c-1.3-4.7-5.6-8.3-10.8-8.4-6.4-.2-11.7 4.8-11.8 11.2v.2c-5.5.8-9.7 5.4-9.9 11.1-.2 6.4 4.8 11.6 11.2 11.8 1.3 0 2.5-.1 3.6-.5 2.6 2.2 6 3.6 9.7 3.7 8.6.2 15.7-6.5 16-15.1.2-6-3.1-11.3-8-14" class="AR"/><path d="M571.3 249.7c-3.7-.1-7.1-1.5-9.7-3.7a14.22 14.22 0 0 1-3.6.5c-6.4-.2-11.4-5.5-11.2-11.8 0-1.3.3-2.5.7-3.7-3.8 1.8-6.4 5.6-6.5 10-.2 6.4 4.8 11.6 11.2 11.8 1.3 0 2.5-.1 3.6-.5 2.6 2.2 6 3.6 9.7 3.7 6.3.2 11.7-3.4 14.4-8.7-2.6 1.6-5.5 2.4-8.6 2.4" class="AS"/><path d="M549.3 240.2c.1-2.8 3.8-5.1 10.8-3.1s7 7.6 12.4 10.4-7.9 7.7-13.9-.4c-6-7.9-9.4-2.6-9.3-6.9" class="AU"/><path d="M551.9 238.9c0-1.8 2.5-3.3 7-2 4.6 1.3 4.5 4.9 8.1 6.8 3.5 1.8-5.1 5-9-.2-4-5.3-6.2-1.8-6.1-4.6" class="AV"/><path d="M553.4 238c0-1.2 1.6-2.1 4.5-1.3s2.9 3.2 5.2 4.3c2.3 1.2-3.3 3.2-5.8-.2-2.6-3.2-4-1-3.9-2.8" class="AW"/><path d="M571.1 225.3c-.5 1.1-2.9 1-5.2-.1-2.4-1.1-3.9-2.9-3.4-4s2.9-1 5.2.1 3.9 2.9 3.4 4" class="AT"/><path d="M546.6 238.3c-5.4-4.5-13.1-5.8-19.9-2.7-8.8 4-13.1 13.9-10.3 23-1.8 3.8-2 8.3-.1 12.4 3.3 7.4 12.1 10.7 19.5 7.3 3.9-1.8 6.7-5.1 7.9-8.9 1.1-.6 2.1-1.3 3.1-2.1 2.8.5 5.7.1 8.4-1.1 7.4-3.3 10.7-12.1 7.3-19.5-2.8-6.2-9.5-9.5-15.9-8.4" class="Ag"/><path d="M549.7 254c-2.7 1.2-5.7 1.6-8.4 1.1-.9.8-2 1.5-3.1 2.1-1.2 3.8-4 7.1-7.9 8.9-5.2 2.4-11.1 1.4-15.3-2-.1 2.2.3 4.5 1.3 6.7 3.3 7.4 12.1 10.7 19.5 7.3 3.9-1.8 6.7-5.1 7.9-8.9 1.1-.6 2.1-1.3 3.1-2.1 2.8.5 5.7.1 8.4-1.1 7.4-3.3 10.7-12.1 7.3-19.5-1-2.2-2.5-4-4.2-5.4-.3 5.6-3.4 10.6-8.6 12.9" class="Ah"/><path d="M423.7 234.1c-12.9 7.4-27.5.7-36.8-9.9-4-5.3-4-13.3 0-19.9 5.3-9.3 14.6-14.6 25.3-12 14.6 4 33.2 22.6 19.4 37.8-2 1.8-4.6 3.2-7.9 4" class="AR"/><path d="M417.4 225c-6.9 4-14.7.4-19.7-5.3-2.1-2.8-2.1-7.1 0-10.7 2.9-5 7.8-7.8 13.5-6.4 7.8 2.1 17.8 12.1 10.4 20.3-1 .9-2.4 1.7-4.2 2.1" class="AU"/><path d="M409.7 221.8c-3.9 0-8.4-2.4-12-6.4-.8-1.3-.9-3.7.5-6 1.2-2.1 3.7-5.4 7.8-5.4.7 0 1.4.1 2.1.3 4.8 1.3 10.2 6 11.4 10 .4 1.2.5 2.7-1.1 4.6-.4.3-1.1.7-2.3 1l-.9.2-.8.5c-1.6.8-3.1 1.2-4.7 1.2" class="AV"/><path d="M405.9 215.8l1-.3c1.3-.3 2.1-.8 2.6-1.1 1.8-2.2 1.6-3.8 1.2-5.2-.5-1.7-1.6-3.4-3.1-5-.6-.1-1.1-.2-1.7-.2-4.1 0-6.6 3.3-7.8 5.4-1.4 2.3-1.3 4.7-.5 6 .8.9 1.6 1.6 2.4 2.3 1.7-.1 3.3-.5 4.9-1.4l1-.5z" class="AW"/><path d="M428.8 225.9c-12.9 7.4-29.1 12.5-36.8-9.9-3.3-4.5-3.9-10.8-1.6-16.6-1.3 1.5-2.5 3.1-3.5 4.9-4 6.6-4 14.6 0 19.9 9.3 10.6 23.9 17.3 36.8 9.9 3.3-.8 5.9-2.2 7.9-4 2.2-2.5 3.6-5 4.3-7.6-1.9 1.6-4.2 2.7-7.1 3.4" class="AS"/><path d="M415.1 196.5c0 1-3.4 1.9-7.5 1.9-4.2 0-8.1-1.8-8.1-2.8s3.2-2.8 7.3-2.8c4.2 0 8.3 2.6 8.3 3.7" class="AT"/><path d="M635.1 256c-5.2-5.3-13.1-7.4-20.6-4.9-9.7 3.3-15.2 13.2-13.1 23-2.3 3.8-3 8.5-1.4 13 2.7 8.1 11.5 12.4 19.6 9.7 4.3-1.5 7.6-4.6 9.2-8.5 1.2-.5 2.4-1.2 3.4-1.9 2.8.8 5.9.7 8.9-.3 8.1-2.7 12.4-11.5 9.7-19.6-2.2-6.8-8.9-11-15.7-10.5" class="Ai"/><path d="M636.7 272.8c-3 1-6.1 1-8.9.3-1.1.7-2.2 1.4-3.4 1.9-1.7 3.9-4.9 7.1-9.2 8.5a15.64 15.64 0 0 1-15.8-3.6c-.3 2.3-.2 4.8.6 7.2 2.7 8.1 11.5 12.4 19.6 9.7 4.3-1.5 7.6-4.6 9.2-8.5 1.2-.5 2.4-1.2 3.4-1.9 2.8.8 5.9.7 8.9-.3 8.1-2.7 12.4-11.5 9.7-19.6-.8-2.4-2.2-4.4-3.8-6.1-.8 5.6-4.6 10.5-10.3 12.4" class="AX"/><path d="M438.7 229.3c-5.4-8.1-16.3-10.3-24.4-4.9-5.1 3.4-7.9 9.1-7.8 14.8-4.2-1.1-8.8-.5-12.6 2-7.1 4.7-9.1 14.4-4.3 21.5 1.6 2.4 3.7 4.2 6.1 5.3-.5 4 .4 8.2 2.8 11.8 5.4 8.1 16.3 10.3 24.4 4.9 1.8-1.2 3.2-2.6 4.4-4.2 1.9-.6 3.7-1.4 5.4-2.5 9.3-6.2 11.8-18.7 5.7-28l-.3-.3c4.3-5.8 4.8-14 .6-20.4" fill="#f6e4cc"/><path d="M438.7 229.3c-3.4-5.1-9-7.9-14.7-7.9.7.7 1.3 1.5 1.9 2.3 4.3 6.4 3.7 14.6-.7 20.4l.3.3c6.2 9.3 3.6 21.8-5.7 28-1.7 1.1-3.5 2-5.4 2.5-1.2 1.6-2.7 3.1-4.4 4.2-3 2-6.4 2.9-9.7 2.9 5.8 6.1 15.3 7.4 22.5 2.6 1.8-1.2 3.2-2.6 4.4-4.2 1.9-.6 3.7-1.4 5.4-2.5 9.3-6.2 11.8-18.7 5.7-28l-.3-.3c4.4-5.7 4.9-13.9.7-20.3" class="Aa"/><path d="M606.6 270.9c2.4-3.6 3.8-7.4 4.2-11.3a27.15 27.15 0 0 0 0-5.7c-.7-10.8-8.1-23.1-17.9-20.7-14.8 2.5-46.8 4.9-36.1 29.1 1.1 2.2 2.4 4.4 3.9 6.5 9.2 12.7 25.7 22.4 40.5 11 2.3-2.1 4.2-5.1 5.4-8.9" class="AR"/><path d="M595.3 263.3c5-7.9 2.5-17.7-4.9-20.2-9.8-2.5-32 7.4-17.9 21.3 1.3 1.4 2.7 2.7 4.3 3.7 4.7 3.1 10.4 4 15.6 0 1.3-1.2 2.3-2.8 2.9-4.8" class="AU"/><path d="M591.7 254.6c1.2-11.5-11.1-14-18.5-9.1-4.9 2.5-2.5 9.8 1.1 14.4 2.2 2.5 4.9 4.4 7.4 5.2 1.5.5 3.4.7 5.9-1.1.4-1.3-2-3.8 2.3-4.5 1.1-1.5 1.7-3.2 1.8-4.9" class="AV"/><path d="M584.8 250.9c-1.8 11.9-11.6 4.5-11.6 2.1-4.9-9.8 7.4-7.4 12.3-9.8 2.5 0 2.5 4.9.1 6.9l-.8.8z" class="AW"/><path d="M596 276.4c2.4-3.6 4.7-7.5 6.3-11.5.8-2 1.4-3.9 1.8-5.9 3.5-18.5-18.7-25.8-33.5-18.5 7.4-4.9 14.8-9.8 22.1-9.8 9.8 2.5 17.2 12.3 17.9 23.1a27.15 27.15 0 0 1 0 5.7c-.4 3.8-1.8 7.6-4.2 11.3-1.2 3.8-3 6.8-5.3 8.9-3.2 2.5-6.4 3.9-9.7 4.6 2-1.9 3.6-4.5 4.6-7.9" class="AS"/><path d="M559.4 259.4c1.5-4 11.3-11.4-1-13.9-2.5 0-2.5 7.4-1.7 10.9 1 1.8 2.1 3 2.7 3" class="AT"/><path d="M388.1 208.5c1.5 2.7-.1 6.3 3.5 7.4 1.3 1 1.6 3.7 2.9 4.8 8.7 4.7 16.1 19.2 7.2 24.6-18.5 13.9-49.3 26.2-57.5-7.9-.3-1.3-.6-2.6-.8-4-.1-2.5 0-5.2.2-8 .1-1.4.3-2.7.5-4.1 4.5-17.5 21.5-20 31.7-19.1 2.3.2 6.6.7 7.3 2.8.3.5 4.7 2.9 5 3.5" class="AR"/><g class="AS"><path d="M371.1 244.5c-4.6 1.3-8.7-.8-11.9-4.2-1.1-1.2-2.1-2.5-2.9-3.8-1-3.1-2.4-5.9-3.7-8.8-.6-1.4-1.3-2.8-1.8-4.3.9-3.4.7-13.1 3.6-16.7-4.4 1.8-9.1 9.5-10.7 13.6-.5 1.3-.6 2.7-.7 4-.3 2.8-.1 5.8.6 9 .2 1.2.4 2.4.7 3.5 8 34.7 39.1 22.4 59.1 10.2 3-1.8 4.4-9 1.5-14.4-8.9 10.8-20.7 5.4-29.8 11-1.6.3-2.8.6-4 .9"/><path d="M361.7 238.7c-2.6 3.1-5.3-.5-9.9-4.9-2.6-3.6-4-9.3-2.6-11.3 4 1.6 8.7-1.6 12.8 12.3.5 1.8.5 3.2-.3 3.9m4.2-11.3s-1.3 7.3 1.8 9.8c3.1 2.4 4.7 2.8 4.7 2.8s4.2 1 3.4-2.4-3.6-10.4-9.9-10.2"/></g><path d="M382.9 208.8c0 1.1-3.6 2-8 2s-8.6-1.9-8.6-3 3.4-3 7.8-3 8.8 2.9 8.8 4" class="AT"/><path d="M472.9 247c1.6 2.9-.1 6.7 3.7 7.8 1.3 1.1 1.7 3.9 3.1 5.1 9.2 5 17 20.3 7.7 26-19.6 14.7-52.2 27.7-60.9-8.4-.3-1.3-.6-2.7-.9-4.2-.1-2.7 0-5.5.3-8.4.1-1.4.3-2.9.6-4.4 4.7-18.5 22.7-21.2 33.6-20.2 2.5.2 7 .7 7.7 2.9 0 .7 4.7 3.2 5.1 3.8" fill="#f6dcb6"/><g fill="#deb98a"><path d="M454.8 285.1c-4.8 1.4-9.2-.8-12.6-4.5-1.1-1.2-2.2-2.6-3.1-4.1-1.1-3.2-2.5-6.3-3.9-9.3-.7-1.5-1.3-3-1.9-4.5 1-3.6.7-13.9 3.8-17.7-4.7 1.9-9.6 10-11.4 14.4-.5 1.3-.6 2.8-.8 4.3-.3 2.9-.1 6.1.6 9.5.2 1.3.5 2.5.7 3.7 8.5 36.7 41.4 23.8 62.6 10.8 3.1-1.9 4.7-9.6 1.6-15.3-9.4 11.5-21.9 5.7-31.6 11.6-1.4.5-2.7.8-4 1.1"/><path d="M444.9 279c-2.8 3.3-5.6-.5-10.5-5.2-2.8-3.8-4.2-9.8-2.8-11.9 4.2 1.7 9.2-1.7 13.5 13 .6 1.9.6 3.4-.2 4.1m4.5-11.9s-1.4 7.8 1.9 10.3c3.3 2.6 4.9 3 4.9 3s4.5 1.1 3.6-2.6c-.8-3.6-3.8-11-10.4-10.7"/></g><path d="M467.3 247.3c0 1.2-3.8 2.1-8.5 2.1s-9.1-2-9.1-3.2 3.6-3.2 8.3-3.2c4.6.1 9.3 3.2 9.3 4.3" class="AT"/><path d="M373.2 261.5c2.6-6.2 4.5-16.2-2.5-20.9-5.6-3.2-12.9-2.1-17.4 2-1.5 1.4-.3 5.8 1.1 7.3-13 .8-29.2 7.2-32.8 21.5-2.3 18.6 16.9 28 31.8 28.9 6.4.4 17.3-7 19.2-9.2 3-3.4 3.8-8.5-6.7-10.4 7.4-4 3.3-8.5 5.5-15.2.5-1.2 1.2-2.5 1.8-4" class="Aj"/><path d="M357.4 292.4c-14.9-1-34.1-10.3-31.8-28.9 0-.1.1-.2.1-.4-1.9 2.4-3.3 5.2-4.1 8.3-2.3 18.6 16.9 28 31.8 28.9 6.4.4 17.3-7 19.2-9.2 1.5-1.8 2.5-4 1.6-5.9-4 3.1-11.8 7.5-16.8 7.2m13.9-26.8l1.9-4.1c2.6-6.2 4.5-16.2-2.5-20.9 0 0-.1 0-.1-.1 1.6 2.9 2.7 7.5-1.9 12.2-7.6 7.8-19.9 26.5-2.8 28 7.4-3.9 3.3-8.4 5.4-15.1" class="Aa"/><path d="M345 255.1c.4.7-1.6 2.5-4.3 3.9-2.8 1.5-6 1.7-6.4 1s1.1-3 3.9-4.5c2.7-1.4 6.4-1.1 6.8-.4" class="AT"/><path d="M537.5 300.1c-7-.4-17.3-3.1-18.7-11.4-.5-6.5 3.7-12.5 9.5-14.8 2-.8 5.6 2.3 6.4 4.2 6.4-11.4 19.6-23.1 34.7-20.1 18.7 6.1 19.1 27.5 13.6 41.3-2.4 6-14.2 12.5-17.1 13.3-4.6 1.2-9.7-.3-6.9-10.6-7 4.9-9.5-.8-16.8-1.8-1.5 0-3 0-4.7-.1" class="Aj"/><path d="M573.6 299.4c5.6-13.8 5.1-35.3-13.6-41.3-.1 0-.3 0-.4-.1 3.1-.6 6.3-.7 9.7 0 18.7 6.1 19.1 27.5 13.6 41.3-2.4 6-14.2 12.5-17.1 13.3-2.4.6-4.8.5-6.3-1.2 4.7-2.3 12.3-7.3 14.1-12" class="Af"/><path d="M543.7 271.8c.5.6 3-.3 5.6-2.2 2.6-1.8 4.2-4.7 3.7-5.3s-3.3-.3-5.9 1.5c-2.5 1.9-3.8 5.4-3.4 6" class="AT"/><path d="M480.4 223.8c5-2.2 13.1-4.1 17.1 1.2 2.7 4.3 1.9 10-1.3 13.7-1.1 1.2-4.7.4-5.9-.6-.4 10.2-5.3 23.1-16.9 26.4-15.1 2.5-23.2-12.3-24.2-23.9-.5-5 5.4-13.8 7.1-15.3 2.7-2.5 6.8-3.2 8.6 4.9 3.1-5.9 6.9-2.9 12.3-4.8.9-.5 2-1.1 3.2-1.6" class="Aj"/><path d="M455.5 237.2c1.1 11.6 9.1 26.4 24.2 23.9.1 0 .2-.1.3-.1-1.9 1.5-4.2 2.8-6.7 3.5-15.1 2.5-23.2-12.3-24.2-23.9-.5-5 5.4-13.8 7.1-15.3 1.4-1.3 3.2-2.1 4.8-1.5-2.4 3.3-5.8 9.5-5.5 13.4m21.6-11.8l3.3-1.6c5-2.2 13.1-4.1 17.1 1.2 0 0 0 .1.1.1-2.4-1.1-6.2-1.9-9.9 1.9-6.2 6.2-21.3 16.5-22.8 3.1 3-5.9 6.8-2.8 12.2-4.7" class="Af"/><path d="M486.2 245.7c-.6-.3-2 1.3-3.1 3.5-1.2 2.2-1.3 4.7-.7 5s2.4-1 3.6-3.2c1.1-2.2.7-5.1.2-5.3" class="AT"/><path d="M319.2 248.3c-6.2-6.3-15.7-8.9-24.6-5.9a23.77 23.77 0 0 0-15.7 27.5 18.58 18.58 0 0 0-1.7 15.5c3.3 9.7 13.8 14.9 23.5 11.6 5.2-1.7 9-5.6 11-10.2 1.5-.6 2.8-1.4 4.1-2.3 3.4.9 7.1.9 10.7-.3 9.7-3.3 14.9-13.8 11.6-23.5-2.8-8.1-10.7-13-18.9-12.4" class="Ai"/><path d="M321.1 268.4c-3.6 1.2-7.3 1.3-10.7.3-1.3.9-2.6 1.6-4.1 2.3-2 4.6-5.9 8.4-11 10.2a18.59 18.59 0 0 1-18.9-4.3 18.21 18.21 0 0 0 .8 8.6c3.3 9.7 13.8 14.9 23.5 11.6 5.2-1.7 9-5.6 11-10.2 1.5-.6 2.8-1.4 4.1-2.3 3.4.9 7.1.9 10.7-.3 9.7-3.3 14.9-13.8 11.6-23.5-1-2.9-2.6-5.3-4.6-7.3-1 6.7-5.6 12.6-12.4 14.9" class="AX"/><path d="M628.2 268.1c-.2-7-4.4-13.6-11.2-16.7-8.9-4-19.1-.5-24 7.6-4 1.2-7.5 4-9.4 8.1-3.3 7.4 0 16.1 7.4 19.4 4 1.8 8.3 1.6 11.9 0a23.69 23.69 0 0 0 3.6.9c1.5 2.4 3.7 4.3 6.4 5.6 7.4 3.3 16.1 0 19.4-7.4 2.9-6.3 1-13.4-4.1-17.5" class="Ag"/><path d="M618.4 280.9c-2.8-1.2-4.9-3.2-6.4-5.6a23.69 23.69 0 0 1-3.6-.9c-3.7 1.6-8 1.8-11.9 0-5.2-2.3-8.4-7.4-8.7-12.7-1.7 1.4-3.2 3.2-4.2 5.4-3.3 7.4 0 16.1 7.4 19.4 4 1.8 8.3 1.6 11.9 0a23.69 23.69 0 0 0 3.6.9c1.5 2.4 3.7 4.3 6.4 5.6 7.4 3.3 16.1 0 19.4-7.4 1-2.2 1.4-4.5 1.2-6.7-4 3.3-9.8 4.3-15.1 2" class="Ah"/><path d="M343 279c-15.4 8.8-32.9.9-44.1-11.9-4.8-6.4-4.8-15.9 0-23.9 6.4-11.1 17.5-17.5 30.2-14.3 17.5 4.8 39.8 27 23.3 45.3-2.2 2.2-5.4 3.8-9.4 4.8" class="AR"/><path d="M335.5 268.1c-8.3 4.7-17.7.5-23.6-6.4-2.6-3.4-2.6-8.5 0-12.8 3.4-6 9.4-9.4 16.2-7.7 9.4 2.6 21.3 14.5 12.5 24.3-1.3 1.2-3 2.1-5.1 2.6" class="AU"/><path d="M326.3 264.3c-4.7 0-10.1-2.9-14.4-7.7-1-1.5-1.1-4.4.6-7.2 1.4-2.5 4.4-6.5 9.4-6.5.8 0 1.6.1 2.5.3 5.8 1.6 12.2 7.2 13.6 12 .4 1.5.6 3.2-1.3 5.5-.5.4-1.4.8-2.7 1.2l-1.1.3-1 .6c-1.8 1-3.6 1.5-5.6 1.5" class="AV"/><path d="M321.8 257.1l1.2-.3c1.6-.4 2.5-.9 3.1-1.3 2.1-2.6 2-4.6 1.5-6.2-.6-2-1.9-4.1-3.7-6l-2-.2c-4.9 0-7.9 4-9.4 6.5-1.7 2.8-1.6 5.7-.6 7.2.9 1 1.9 2 2.9 2.8 2.1-.1 4-.6 5.9-1.7l1.1-.8z" class="AW"/><path d="M349.1 269.2c-15.4 8.8-34.8 14.9-44.1-11.9-4-5.3-4.6-12.9-1.9-19.9-1.6 1.8-3 3.7-4.2 5.8-4.8 8-4.8 17.5 0 23.9 11.1 12.7 28.6 20.7 44.1 11.9 4-1 7.1-2.7 9.4-4.8 2.7-2.9 4.3-6 5.1-9-2.1 1.7-4.9 3.1-8.4 4" class="AS"/><path d="M332.8 233.9c0 1.2-4 2.3-9 2.3s-9.7-2.1-9.7-3.4c0-1.2 3.8-3.4 8.8-3.4 4.9.1 9.9 3.3 9.9 4.5" class="AT"/><path d="M400.3 250c-1.8-6.4-7.6-11.2-14.6-11.4-8.6-.2-15.8 6.6-16.1 15.2v.2c-7.4 1.1-13.2 7.3-13.4 15-.2 8.6 6.6 15.8 15.2 16.1 1.7 0 3.4-.2 4.9-.7 3.5 3 8.1 4.9 13.1 5.1 11.7.3 21.4-8.9 21.7-20.5.2-8.1-4.2-15.3-10.8-19" class="AR"/><path d="M397.3 280.9c-5-.1-9.6-2-13.1-5.1-1.6.5-3.2.7-4.9.7-8.6-.2-15.4-7.4-15.2-16.1 0-1.8.4-3.4 1-5-5.1 2.5-8.7 7.6-8.8 13.6-.2 8.6 6.6 15.8 15.2 16.1 1.7 0 3.4-.2 4.9-.7 3.5 3 8.1 4.9 13.1 5.1 8.5.2 16-4.6 19.5-11.8-3.4 2.2-7.4 3.3-11.7 3.2" class="AS"/><path d="M367.4 268.1c.1-3.8 5.1-6.9 14.7-4.2s9.5 10.3 16.8 14.1-10.7 10.4-18.9-.5c-8.1-10.9-12.7-3.6-12.6-9.4" class="AU"/><path d="M371 266.3c.1-2.5 3.3-4.5 9.6-2.7 6.2 1.8 6.2 6.7 10.9 9.2 4.8 2.5-7 6.8-12.3-.3-5.3-7.2-8.3-2.4-8.2-6.2" class="AV"/><path d="M373 265.1c0-1.6 2.1-2.9 6.1-1.7 4 1.1 4 4.3 7 5.9 3.1 1.6-4.5 4.3-7.9-.2-3.3-4.6-5.3-1.6-5.2-4" class="AW"/><path d="M397 247.8c-.7 1.5-3.9 1.4-7.1-.1s-5.3-4-4.6-5.4c.7-1.5 3.9-1.4 7.1.1s5.3 4 4.6 5.4" class="AT"/><path d="M465.5 241.9c-.1 0-.1 0 0 0v-.6c0-9.3-7.6-16.9-16.9-16.9-8.1 0-14.8 5.7-16.5 13.2-5.6 3.1-9.5 8.9-10.1 15.6-1.9 2-3 4.7-3 7.7 0 6.2 5.1 11.3 11.3 11.3.6 0 1.2-.1 1.8-.2 2.8 1.5 6 2.4 9.5 2.4 5.7 0 10.8-2.4 14.4-6.3 2.6 2.1 5.8 3.4 9.4 3.4a14.77 14.77 0 0 0 14.8-14.8c.1-8.2-6.6-14.8-14.7-14.8" class="AR"/><path d="M445.6 264.4c-2-1.3-3.6-3.1-9.7-6-6.2-2.8-3.1-17.8 12.7-16.1s16.8 12.3 10.9 15.1c-6 2.9-8.7 10.5-13.9 7" class="AU"/><path d="M448 263.2c-1.5-1-2.7-2.3-7.3-4.5-4.6-2.1-2.3-13.3 9.5-12s12.6 9.2 8.1 11.3c-4.4 2.2-6.4 7.8-10.3 5.2" class="AV"/><path d="M467 266.4c-3.6 0-6.9-1.3-9.4-3.4-3.6 3.9-8.7 6.3-14.4 6.3-3.4 0-6.7-.9-9.5-2.4-.6.1-1.2.2-1.8.2-6.2 0-11.3-5.1-11.3-11.3v-.6c-1 1.7-1.6 3.6-1.6 5.7 0 6.2 5.1 11.3 11.3 11.3.6 0 1.2-.1 1.8-.2 2.8 1.5 6 2.4 9.5 2.4 5.7 0 10.8-2.5 14.4-6.3 2.6 2.1 5.8 3.4 9.4 3.4 7.6 0 13.9-5.8 14.7-13.2-2.4 4.9-7.3 8.1-13.1 8.1m-43.2-19.8c-.4.8-.7 1.6-.9 2.4.2-.3.5-.6.7-.8 0-.6.1-1.1.2-1.6" class="Aa"/><path d="M507.6 241.8c-6.2-11.3-21.3-6.2-28 3.8-6.7 10.1-10.1 23.5-3.4 33.6 13.4 16.8 48.7 13.4 58.8-3.4 8.4-13.4-6.7-30.2-23.5-34.6a13.2 13.2 0 0 0-3.9.6" class="AR"/><path d="M535.6 259.9c-.4 1.3-1 2.6-1.8 3.9-10.1 16.8-45.4 20.2-58.8 3.4-.9-1.3-1.6-2.7-2.2-4.2-.7 5.7.1 11.4 3.4 16.3 13.4 16.8 48.7 13.4 58.8-3.4 3.3-5.1 3-10.8.6-16" class="AS"/><path d="M517 265.7c7.9 5.2 1.2 11.9-6.2 15.7-1.4.7-2.8 1.3-4.1 1.8-5.9 1.5-11.4-.4-15.5-3.9-1-.9-1.9-1.9-2.7-2.9-7.2-8.9-5.6-24 6.2-25.7 6.7 0 11.8 6.7 17.5 12.5 1.6.8 3.3 1.6 4.8 2.5" class="AU"/><path d="M513.2 264.5c1.7 1.3 3.3 1.3 3.3 3 0 6.7-5 8.4-10.1 10.1-8.4 1.7-15.1-3.4-18.5-10.1-1.7-3.4-1.7-10.1 1.7-13.4 8.4-6.7 15.1 3.4 20.1 8.1 1.2.7 2.4 1.4 3.5 2.3" class="AV"/><path d="M509.9 262.5c1.6 1.7 3.2 5 1.6 6.7-3.4 3.4-8.4 1.7-13.4 1.7-8.4-1.7-8.4-13.4-3.4-16.8s10.1 1.7 13.1 6.2c.7.7 1.5 1.4 2.1 2.2" class="AW"/><path d="M504.7 196.6c-6.6.8-12.2 5.7-13.5 12.6-1.6 8.4 4 16.6 12.4 18.2h.2c-.1 7.4 5.1 14.1 12.7 15.5 8.4 1.6 16.6-4 18.2-12.4.3-1.7.3-3.3.1-4.9 3.5-3 6.1-7.2 7-12.1 2.1-11.4-5.3-22.4-16.7-24.5-8-1.6-15.7 1.6-20.4 7.6" class="AR"/><path d="M534.6 204.4c-.9 4.9-3.5 9.1-7 12.1.2 1.6.2 3.3-.1 4.9-1.6 8.4-9.7 14-18.2 12.4-1.7-.3-3.3-.9-4.7-1.7 1.6 5.4 6.1 9.7 12 10.8 8.4 1.6 16.6-4 18.2-12.4.3-1.7.3-3.3.1-4.9 3.5-3 6.1-7.2 7-12.1 1.6-8.3-2-16.4-8.5-21 1.4 3.6 2 7.7 1.2 11.9" class="AS"/><use xlink:href="#D" x="123.7" y="24.4" class="AU"/><path d="M516.1 227.9c-2.4-.5-3.9-4-1.1-9.8 2.7-5.8 7.6-5 10.8-9.3s5.5 7.9-2.3 12c-7.9 4.1-3.7 7.8-7.4 7.1" class="AV"/><path d="M515.2 225.8c-1.6-.3-2.5-2.6-.7-6.3s4.9-3.2 6.9-6 3.6 5.1-1.5 7.7c-5 2.6-2.3 5-4.7 4.6" class="AW"/><path d="M502.1 199.4c1.3.9.8 4-1.2 7-2 2.9-4.7 4.6-6 3.7s-.8-4 1.2-7c1.9-2.9 4.6-4.6 6-3.7" class="AT"/><path d="M585.4 711.4H340.8l-68.4-420.8h381.4z" class="Ab"/><path d="M311.9 290.6l54.7 420.8h16.2l-45.6-420.8z" fill="#f53140"/><path d="M367.6 290.6l34.7 420.8h22.1L402 290.6z" fill="#f51726"/><path d="M279.3 290.6l66.4 420.8h8.3l-61.7-420.8z" fill="#f53d4a"/><path d="M439.9 290.6l8.7 420.8h25.6l5.6-420.8z" fill="#e61624"/><path d="M584.6 290.6l-43.2 420.8h17.1l52.7-420.8z" fill="#f53140"/><path d="M632.3 290.6L572 711.4h9.3l65.6-420.8z" fill="#f53d4a"/><path d="M518.1 290.6l-19.3 420.8h22.5l32-420.8z" fill="#f51726"/><path d="M577.6 681.5c-4.4 1.3-8.7 2.4-12.9 3.5s-8.4 2-12.4 3l-12 2.5c-4 .8-7.8 1.4-11.7 2l-11.4 1.7-11.1 1.3c-3.7.4-7.3.7-10.9 1s-7.2.5-10.8.7-7.1.3-10.6.4-7.1.1-10.6.1-7.1 0-10.6-.1l-10.6-.4-10.8-.7-10.9-1-11.1-1.3-11.4-1.7-11.7-2c-4-.7-8-1.6-12-2.5a317.51 317.51 0 0 1-12.4-3l-12.9-3.5-13.3-4.1 1.9 12.4 1.6 10.8 1.9 12.4c0 11.7 55.2 26.2 122.4 26.2s122.3-14.4 122.3-26.2l1.9-12.4 1.7-10.8 1.9-12.4-13.5 4.1" class="Ab"/><path d="M298.6 333.6l-6.3-42.9h-13l7.5 47.3c3.9-1.6 7.8-3 11.8-4.4" fill="#cc1420"/><path d="M279.3 290.6h-6.9l8.1 49.9 6.3-2.5-7.5-47.4zm366.4 49.9l8.1-49.9h-6.9l-7.4 47.4 6.2 2.5m-329-12.9l-4.8-37h-19.6l6.3 42.9 18.1-5.9" fill="#d9d1bb"/><path d="M440.2 307.1l-.3-16.5H402l1 19.3c12.2-1.3 24.6-2.3 37.2-2.8" fill="#ccc5b0"/><path d="M581.6 320l3-29.4h-31.3l-1.8 23.3c10.2 1.8 20.3 3.8 30.1 6.1" fill="#d1cab4"/><path d="M626.2 333l6.1-42.4h-21l-4.5 36.1c6.5 2 13 4.1 19.4 6.3" fill="#d9d1bb"/><path d="M369.6 314.8l-2-24.2h-30.3l3.3 30.4c9.4-2.3 19.1-4.4 29-6.2" fill="#d1cab4"/><path d="M517.2 309.3l.9-18.7h-38.3l-.2 16.2c12.7.4 25.3 1.3 37.6 2.5" fill="#ccc5b0"/><path d="M340.5 321l-3.3-30.4h-25.4l4.8 37c7.9-2.4 15.8-4.6 23.9-6.6m62.6-11.1l-1-19.3h-34.5l2 24.2c10.9-1.9 22.1-3.6 33.5-4.9m60-3.3l16.5.2.2-16.2h-39.9l.3 16.5c7.6-.3 15.2-.5 22.9-.5m143.6 20.1l4.5-36.1h-26.6l-3 29.4c8.5 2 16.9 4.3 25.1 6.7" fill="#de1522"/><path d="M639.5 338l7.4-47.4h-14.7l-6.1 42.4c4.6 1.6 9 3.3 13.4 5" fill="#cc1420"/><path d="M551.5 313.9l1.8-23.3h-35.2l-.9 18.7c11.7 1.2 23.1 2.7 34.3 4.6" fill="#de1522"/><path d="M663.3 290.2c0 5.2-4.5 9.5-9.9 9.5H272.8c-5.5 0-9.9-4.3-9.9-9.5s4.5-9.5 9.9-9.5h380.6c5.5 0 9.9 4.3 9.9 9.5" class="Ab"/><path d="M272.8 299.7h380.6c5.5 0 9.9-4.3 9.9-9.5H262.9c0 5.2 4.4 9.5 9.9 9.5" fill="#e3decf"/><path d="M400.1 517.5c-4.5 0-8.7-.9-12.5-2.7-4.9-2.4-8.9-6.2-11.5-11-2.4-4.4-3.7-9.5-3.7-15.2 0-6 1.3-11.5 3.9-16.3 2.7-5 6.5-9 11.4-12a22.81 22.81 0 0 1 4.7-2.3c0-.7 0-1.5.1-2.2l2.1-27.3c.4-4.4 2.2-8.3 5-11.3 2.8-2.9 6.6-4.8 10.8-5.4l12.1-1.9c2-.4 3.9-.5 5.7-.5 4.3 0 8.1 1 11.4 2.9 1.1-1.2 2.2-2.3 3.4-3.2 4.3-3.5 9.3-5.9 14.9-7.2 2.7-.6 5.4-.9 7.9-.9 2.8 0 5.4.4 7.8 1.1 1.3.4 2.6.9 3.8 1.6.5-.8 1-1.5 1.6-2.2 2.8-3.1 6.4-5.1 10.6-5.9 5-1 7.6-1.4 12.8-2.2 1.6-.3 3.2-.4 4.7-.4 5.3 0 9.9 1.5 13.7 4.4 3.7 2.8 8 8.1 8 17.3 0 7.2-2.4 13.5-7 18.3-1.4 1.5-3 2.8-4.7 3.9 1 .5 1.9 1.1 2.7 1.8a16.85 16.85 0 0 1 11.9-5.3h.6c4.8 0 9.1 1.9 12.2 5.3 3.2 3.5 4.6 8.1 4.1 13l-2.1 27c-.4 4.5-2.2 8.4-5.2 11.3-3.1 3.1-7.2 4.9-11.6 5.1h-1c-4 0-7.6-1.2-10.4-3.5-2.8 3.1-6.6 5.1-10.9 5.8-.9.1-1.8.2-2.6.2-2 0-3.9-.4-5.8-1.1-2.5 2.1-5.5 3.6-8.6 4.2a18.7 18.7 0 0 1-3.4.3c-2.1 0-4.2-.4-6.1-1.2-.4-.2-.7-.3-1.1-.5-2.6 2.7-6 4.6-9.7 5.5-1.4.3-2.8.5-4.1.5-3.1 0-6-.8-8.4-2.5-.6.6-1.2 1.1-1.8 1.6-4.4 3.6-9.5 6-15.1 7.2-2.5.5-4.9.8-7.2.8a27.35 27.35 0 0 1-8.7-1.4c-1-.3-2-.8-3-1.3l-.6.6c-2.1 1.9-4.7 3.5-8 4.9-3.1 1.3-6.4 2.2-9.8 2.5-1-.2-2.2-.2-3.3-.2" class="Ab"/><g fill="#e61624"><path d="M546.4 436.7c-3.6-4-8.5-6.1-14-6.1h-.6c-2 .1-3.9.4-5.8 1 3.5-4.8 5.3-10.6 5.3-17.1 0-8-3.2-14.8-9-19.2-4.2-3.3-9.3-4.9-15.2-4.9-1.6 0-3.3.1-5.1.4-5.2.8-7.8 1.3-12.9 2.3-4.7.9-8.8 3.2-11.9 6.7-.2.2-.4.5-.6.7-.8-.3-1.5-.6-2.3-.8-2.7-.8-5.6-1.2-8.6-1.2-2.7 0-5.6.3-8.4 1-5.9 1.4-11.3 3.9-15.9 7.7-.8.6-1.6 1.3-2.3 2.1-3.3-1.6-6.9-2.4-10.9-2.4a33.13 33.13 0 0 0-6.1.6l-12 1.9c-4.8.7-9 2.8-12.2 6.1-3.2 3.4-5.2 7.8-5.7 12.7l-2.1 27.4c0 .2 0 .5-.1.7-1.2.6-2.4 1.2-3.5 1.9-5.3 3.2-9.4 7.5-12.3 12.9-2.8 5.2-4.2 11.1-4.2 17.4 0 6.1 1.3 11.6 4 16.4 2.9 5.3 7.3 9.5 12.6 12.1 4.1 2 8.6 3 13.5 3 1.2 0 2.5-.1 3.8-.2 3.7-.4 7.2-1.3 10.5-2.7 3.2-1.4 5.9-2.9 8.1-4.8.6.3 1.2.5 1.8.7 2.9 1 6.1 1.5 9.5 1.5 2.5 0 5.1-.3 7.7-.8 6-1.3 11.4-3.8 16.1-7.7.2-.2.4-.3.5-.5 2.5 1.2 5.2 1.9 8.1 1.9 1.5 0 3.1-.2 4.6-.5a21.3 21.3 0 0 0 9.7-4.9c2.1.8 4.4 1.2 6.6 1.2 1.3 0 2.6-.1 3.9-.4 3-.6 5.9-1.9 8.5-3.8 1.7.5 3.5.8 5.3.8 1 0 2-.1 3-.2 4.1-.6 7.8-2.3 10.8-5 2.9 1.8 6.4 2.7 10.1 2.7h1.2c5-.2 9.7-2.3 13.2-5.9 3.4-3.4 5.4-7.8 5.9-12.8l2.1-27.2c.7-5.4-1-10.7-4.7-14.7m-.1 14.4l-2.1 27.1c-.4 3.9-1.9 7.2-4.4 9.8-2.6 2.6-6.2 4.2-10 4.4h-.9c-4.4 0-8.1-1.7-10.6-4.7a23.07 23.07 0 0 1-1.4 1.9c-2.5 2.8-5.8 4.6-9.6 5.2-.8.1-1.5.2-2.3.2-2.2 0-4.4-.6-6.2-1.6-2.4 2.4-5.4 4.1-8.6 4.7-1 .2-1.9.3-2.9.3-1.8 0-3.5-.3-5.1-1-.9-.4-1.7-.8-2.5-1.4-.2.2-.3.4-.5.6-2.4 2.8-5.6 4.8-9.3 5.6-1.2.3-2.4.4-3.5.4-3.1 0-5.9-1-8.2-2.9-.1-.1-.3-.3-.5-.4-1 1.1-2 2.1-3.2 3-4.1 3.3-8.8 5.6-14 6.7a31.81 31.81 0 0 1-6.7.7c-2.8 0-5.4-.4-7.9-1.2-1.5-.5-3-1.2-4.3-2.1-.5.7-1.1 1.3-1.8 1.9-1.9 1.7-4.3 3.1-7.3 4.4-2.9 1.2-5.9 2-9.1 2.3-1.1.1-2.2.2-3.2.2-4.1 0-8-.8-11.4-2.5-4.4-2.1-8-5.6-10.4-10-2.2-4.1-3.3-8.8-3.3-14 0-5.6 1.2-10.6 3.6-15.1 2.4-4.6 6-8.3 10.5-11 1.9-1.1 3.9-2.1 6.1-2.8-.2-1.2-.2-2.4-.1-3.6l2.1-27.3c.4-3.9 1.9-7.2 4.3-9.8 2.4-2.5 5.7-4.1 9.3-4.7l12.1-1.9c1.8-.3 3.6-.5 5.2-.5 4.3 0 8 1.1 11.1 3.2.2.2.5.4.8.6a33.33 33.33 0 0 1 4.6-4.6c4-3.3 8.7-5.5 13.9-6.7 2.5-.6 5-.9 7.3-.9 2.5 0 4.9.3 7.1 1 2 .6 3.8 1.5 5.5 2.6.7-1.4 1.5-2.8 2.6-4 2.4-2.7 5.6-4.4 9.2-5.1 5-1 7.5-1.4 12.7-2.2 1.5-.2 3-.4 4.3-.4 4.7 0 8.8 1.3 12.1 3.9 3.2 2.5 7 7.1 7 15.3 0 6.5-2.2 12.2-6.3 16.6-2.9 3-6.6 5.2-11 6.6.4 0 .8-.1 1.1-.1 4 0 7.5 1.6 9.9 4.5.5-.7 1-1.4 1.6-2 2.7-2.8 6.3-4.4 10.2-4.6h.6c4 0 7.7 1.6 10.3 4.5 2.6 2.8 3.9 6.8 3.5 10.9m-122-31.1a289.71 289.71 0 0 1-12.4 2c-1.9.3-3.6 1.1-4.8 2.3-1.2 1.3-2 2.9-2.2 5l-.7 9.6-1.3 17.9c-.3 2.6.7 4.2 1.6 5 1.2 1.2 2.9 1.6 5 1.4 2-.3 3.8-1.1 5.1-2.6 1.3-1.4 2.1-3.2 2.3-5.3l.5-6.6 6.1-1c2.4-.4 4.6-1.1 6.5-2.1s3.5-2.3 4.9-3.8c2.7-3.1 4.1-7 4.1-11.5 0-4-1.3-6.9-4-8.7-2.8-1.9-6.3-2.4-10.7-1.6m-5.9 12.6c1.8-.3 2.7-.4 4.5-.8 1.5-.3 2 0 2.2.1.3.2.4.9.4 1.4 0 1.1 0 2.4-3.2 2.9l-4.3.7c.2-1.7.3-2.5.4-4.3"/><path d="M470.7 411.9c-3-.9-6.5-.9-10.5 0s-7.6 2.7-10.7 5.2-5.6 5.7-7.2 9.4c-1.6 3.6-2.5 7.6-2.5 11.8 0 3.9.8 7.3 2.5 9.8 1.7 2.6 4.1 4.4 7.1 5.4 3 .9 6.5.9 10.5 0s7.6-2.7 10.7-5.2a25.98 25.98 0 0 0 7.3-9.4c1.7-3.6 2.5-7.6 2.5-11.8 0-3.9-.8-7.2-2.4-9.8-1.8-2.7-4.2-4.5-7.3-5.4m-17.1 23.4c0-3.3.7-6.1 2-8.2 1.2-1.9 2.7-3 4.8-3.4 2-.4 3.3-.2 4.4.8 1.1 1.1 1.7 3 1.7 5.7 0 3.4-.7 6.1-2 8.2-1.2 1.9-2.7 2.9-4.7 3.4s-3.4.2-4.4-.8c-1.2-1.1-1.8-3-1.8-5.7m60.9-29.8c-2.6-2-6.1-2.7-10.5-2-5 .8-7.5 1.2-12.4 2.2-1.9.4-3.6 1.3-4.8 2.7s-2 3.1-2.2 5.1l-.7 9.6-.6 8.4-.7 9.6c-.3 2.7.7 4.1 1.6 4.8 1.2 1 2.9 1.4 5 1 2-.4 3.8-1.4 5.1-2.8 1.3-1.5 2.1-3.2 2.3-5.3l.5-6.6 6.1-1c4.9-.8 8.7-2.5 11.4-5.4s4.1-6.6 4.1-11.1c-.2-4.1-1.5-7.2-4.2-9.2M498.2 416l4.5-.8c1.5-.2 2 0 2.2.1.3.2.4.9.4 1.4 0 1.1 0 2.4-3.2 2.9l-4.3.7c.1-1.6.2-2.5.4-4.3m-93.5 61.5c1.7-.2 3.6.1 5.6.8 1.1.5 2.2.7 3.3.5 1.6-.2 3.1-1.1 4.2-2.5 1-1.3 1.6-2.8 1.6-4.4 0-1.7-.6-3.9-3.6-5.3-1.3-.5-3-.8-5-1.1s-4.2-.3-6.5 0c-4.2.5-8 1.7-11.2 3.6-3.3 2-5.9 4.6-7.7 8-1.8 3.3-2.7 7.1-2.7 11.4 0 3.9.8 7.4 2.4 10.3 1.6 3 4 5.2 7 6.7 2.9 1.4 6.5 2 10.4 1.6a21.92 21.92 0 0 0 6.8-1.7c2.2-.9 3.9-2 5.2-3.1 1-.9 1.7-1.8 2.2-2.9.5-1 .7-2.1.7-3.1 0-1.5-.5-2.7-1.4-3.6-1-1-2.4-1.4-4-1.2-1 .1-2 .5-2.9 1.1l-3.8 1.9c-.7.3-1.6.5-2.6.7-2 .2-3.5-.2-4.4-1.3-1-1.2-1.6-3.1-1.6-5.8 0-3.2.7-5.8 2.1-7.6s3.3-2.8 5.9-3m45-17.8c-3-.9-6.5-.9-10.5-.1s-7.6 2.5-10.7 4.9a24.96 24.96 0 0 0-7.3 9.1 28.54 28.54 0 0 0-2.5 11.7c0 3.9.8 7.3 2.4 9.9 1.7 2.7 4.1 4.6 7.1 5.6s6.5 1.1 10.5.3 7.6-2.6 10.7-5.1a25.98 25.98 0 0 0 7.3-9.4c1.7-3.6 2.5-7.6 2.5-11.9 0-3.9-.8-7.2-2.4-9.8-1.6-2.5-4-4.3-7.1-5.2m-17.1 23.1c0-3.3.7-6.1 2-8.1 1.2-1.8 2.7-2.9 4.7-3.3s3.3-.1 4.4.9c1.1 1.1 1.7 3 1.7 5.7 0 3.4-.7 6.1-2 8.2-1.2 1.9-2.7 2.9-4.7 3.4-2 .4-3.4.1-4.4-.9-1.1-1.2-1.7-3.2-1.7-5.9m65.3-22.5c0-3.9-1.3-6.8-3.9-8.6-2.5-1.8-6-2.3-10.3-1.4-2.6.5-4.6 1-6.6 1.4s-3.9.9-6.6 1.4c-2 .4-3.6 1.4-4.8 2.8s-1.9 3.1-2.1 5.2l-.7 9.6-1.3 18.1c-.3 2.7.7 4.1 1.6 4.8 1.2 1 2.9 1.3 5 .8 2-.5 3.7-1.5 5-3s2-3.3 2.2-5.4l.5-7.1c.5-.1.7-.2 1.2-.3.7-.2.9 0 1.2.4l4.4 8.5c.6 1.1 1.5 1.9 2.6 2.4 1.1.4 2.3.5 3.5.3 1.8-.4 3.4-1.3 4.8-2.7 1.5-1.5 2.3-3.3 2.3-5.2 0-.9-.2-1.9-.7-2.7l-2.3-4.5c-.4-.7-.8-1.2-1.2-1.7 1.5-1.1 2.8-2.3 3.8-3.7 1.5-2.5 2.4-5.7 2.4-9.4m-21 3l5.5-1.2c1.3-.3 1.8-.1 1.9 0 .3.2.4.9.4 1.3 0 1-.4 1.5-.5 1.6-.4.5-1.2.8-2.3 1.1-2.1.4-3.1.7-5.2 1.1.1-1.5.1-2.3.2-3.9m60.1-18c-1.2-1.3-2.9-2-4.8-1.9s-3.5.8-4.8 2.2c-1.3 1.3-2 3-2.1 4.9l-.8 9.9-5.1-6.6-5.1-6.5c-.8-1-2.3-2.2-5.2-1.8-1.9.3-3.5 1.2-4.8 2.6s-2 3.1-2.2 5.1l-.7 9.6-.6 8.4-.7 9.6c-.3 2.6.7 4.1 1.5 4.8 1.2 1.1 2.8 1.6 4.8 1.3s3.7-1.2 4.9-2.6 1.9-3.1 2.1-5.1l.8-9.8 5.1 6.4 5.1 6.5c.7 1.1 2.3 2.3 5.3 2.2 1.9-.1 3.5-.8 4.8-2.1 1.2-1.3 2-2.9 2.2-4.9l.7-9.5.6-8.3.8-9.5c-.1-2.4-1-4-1.8-4.9"/></g><path d="M598.2 564.1l-290-53.3L325.8 619l64.9 11.9c9.1 1.7 19.4-5.3 22.8-15.1l5.2-15.3c3.1-9.2 12.5-15.2 21-13.7l8 1.5c.4.1.7.2 1.1.3.3.1.5.1.8.2s.5.2.8.3c.2.1.5.2.7.3s.5.2.7.4c.2.1.5.2.7.4.2.1.5.3.7.4s.4.3.6.4c.2.2.5.3.7.5s.4.3.6.5.5.4.7.6.4.3.5.5l.7.7c.1.2.3.3.4.5.2.3.4.5.6.8.1.2.3.3.4.5l.6.9c.1.2.2.3.3.5.2.3.4.7.6 1 .1.2.2.3.2.5.2.4.4.8.5 1.1.1.1.1.3.2.4.2.4.3.8.5 1.2 0 .1.1.3.1.4.1.4.3.9.4 1.3 0 .1.1.2.1.3l.3 1.4c0 .1 0 .2.1.3.1.5.1 1 .1 1.6v2l-.6 16.1c-.4 10.4 6.8 20.6 15.9 22.2l114.7 21.1 16.6-102-10.8-1.8z" fill="#bda2a2"/><path d="M631.4 641.3l-6.6-71.7-1.4-15.3-14.2-2.6-13.4-2.5-318.2-58.5-6.8 13.8-6.2 12.7-25.5 51.9c-4.8 9.7-1.3 19.2 7.8 20.9l141.4 26c9.1 1.7 19.4-5.3 22.8-15.1l5.2-15.3c3.1-9.2 12.5-15.2 21-13.7l8 1.5c.4.1.7.2 1.1.3.3.1.5.1.8.2s.5.2.8.3c.2.1.5.2.7.3s.5.2.7.4c.2.1.5.2.7.4.2.1.5.3.7.4s.4.3.6.4c.2.2.5.3.7.5.2.1.4.3.6.5s.5.4.7.6l1.2 1.2c.1.2.3.3.4.5.2.3.4.5.6.8.1.2.3.3.4.5l.6.9c.1.2.2.3.3.5.2.3.4.7.6 1 .1.2.2.3.2.5.2.4.4.8.5 1.1.1.1.1.3.2.4.2.4.3.8.5 1.2 0 .1.1.3.1.4.1.4.3.9.4 1.3 0 .1.1.2.1.3l.3 1.4c0 .1 0 .2.1.3.1.5.1 1 .2 1.6v2l-.6 16.1c-.4 10.4 6.8 20.6 15.9 22.2l141.4 26c9 1.9 15.6-5.8 14.6-16.6" fill="#bf9677"/><path d="M609.1 549.2l-331.6-61-6.8 13.8-6.2 12.7-25.5 51.9c-4.8 9.7-1.3 19.2 7.8 20.9l141.4 26c9.1 1.7 19.4-5.3 22.8-15.1l5.2-15.3c3.1-9.2 12.5-15.2 21-13.7l8 1.5c8.5 1.6 15.1 10.6 14.8 20.2l-.6 16.1c-.4 10.4 6.8 20.6 15.9 22.2l141.4 26c9.1 1.7 15.8-6 14.8-16.8l-6.6-71.7-1.4-15.3-14.4-2.4z" fill="#d4bfaf"/><path d="M291.7 490.8l-14.2-2.6-6.8 13.8-6.2 12.7-25.5 51.9c-4.8 9.7-1.3 19.2 7.8 20.9l95.3 17.5 100.7-86.5-151.1-27.7zm199.9 36.8l-45.8 43.5c8.2 1.9 14.5 10.7 14.2 20.1l-.6 16.1c-.4 10.4 6.8 20.6 15.9 22.2l45 8.3 75.5-91.1-104.2-19.1z" fill="#dbcec1"/><path d="M393.8 570.1c-2.5 9.8-12.1 16.7-21.3 15l-84.2-15.5c-9.2-1.7-13.2-11.1-9-20.6l10.2-23c3.8-8.6 13.7-14.2 22.1-12.6l77.1 14.2c8.4 1.5 13.5 9.9 11.2 18.8l-6.1 23.7z" fill="#00a4bf"/><path d="M600 608c.5 10.4-6.5 17.7-15.7 16l-84.2-15.5c-9.2-1.7-15.8-11.5-14.6-21.6l2.8-24.4c1-9.1 8.8-15.1 17.2-13.5l77.1 14.2c8.4 1.6 15.7 10.3 16.2 19.7L600 608z" fill="#f41c21"/><path d="M388.6 527.5l-28.1-5.2-55.8 50.2 46.5 8.5 47.4-46.5c-2.1-3.5-5.6-6.1-10-7" fill="#40c1d6"/><path d="M505.4 549c-8.4-1.5-16.1 4.4-17.2 13.5l-2.8 24.4c-1.1 9.8 5.1 19.4 14 21.5l39.3-53.2-33.3-6.2zm48.5 8.9l-38 53.6 20 3.6 36.2-53.8zm28.7 5.3l-35.3 54 11.5 2.1 32.6-51.5c-2.6-2.3-5.6-4-8.8-4.6" fill="#d1181c"/><path d="M326.6 516.1l-49 41.3c.3 5.8 3.9 10.5 9.7 11.9l57.3-49.9-18-3.3z" fill="#46d4eb"/><path d="M280.3 552.3l10.2-23c3.8-8.6 13.7-14.2 22.1-12.6l77.1 14.2c4.8.9 8.5 4 10.4 8.1-1.1-5.8-5.4-10.4-11.5-11.5l-77.1-14.2c-8.4-1.5-18.3 4-22.1 12.6l-10.2 23c-2.2 4.9-2.1 9.7-.4 13.5-.5-3-.1-6.5 1.5-10.1" fill="#008aa1"/><path d="M486.5 590.2l2.8-24.4c1-9.1 8.8-15.1 17.2-13.5l77.1 14.2c6.3 1.2 12 6.4 14.6 12.9-1.8-8-8.3-14.9-15.7-16.2L505.4 549c-8.4-1.5-16.1 4.4-17.2 13.5l-2.8 24.4c-.4 3.6.2 7.1 1.5 10.2-.5-2.2-.7-4.5-.4-6.9" fill="#b31418"/><path d="M325.6 503.4l2.8 12.3 12.4 2.3-12.3 2.8-2.2 12.4-2.8-12.3-12.4-2.3 12.3-2.8z" class="AY"/><path d="M501.2 26.4c.7-3.6.4-6.9-.5-10-.5-1.5-1.1-3-1.9-4.4-4.1-8-13.8-15-20.6-9.9-10.5 6.8-34.2 19.2-18 34.2 1.6 1.3 3.3 2.6 5.2 3.7 11.2 6.7 27.1 8.7 34.6-5 1.1-2.4 1.5-5.3 1.2-8.6" class="AR"/><path d="M490 24.3c1.2-7.7-3.9-14.4-10.4-13.8-8.3 1.4-22 16.2-6.7 22.2 1.4.7 3 1.2 4.5 1.4 4.6.8 9.3-.3 12-5.2.6-1.3.8-2.8.6-4.6" class="AU"/><path d="M484.4 18.8c-2.9-9.2-13.2-7-17.2-.8-3 3.5 1.4 8.3 5.6 10.7 2.5 1.1 5.2 1.8 7.4 1.5 1.3-.1 2.8-.6 4.1-2.7-.1-1.2-2.8-2.2.3-4.2.3-1.7.2-3.1-.2-4.5" class="AV"/><path d="M477.9 18.2c2.6 9.7-7.4 7.3-8.2 5.4-7-5.9 3.2-8.1 6.2-11.6 1.9-.8 3.5 3 2.4 5.2l-.4 1z" class="AW"/><path d="M494.9 34.1c.7-3.6 1.1-7.3 1.1-10.9 0-1.8-.2-3.5-.5-5.1C492 2.8 472.6 4.5 463.8 15c4-6.2 8-12.4 13.7-14.9 8.3-1.4 17.2 3.7 21.4 11.8.8 1.4 1.4 2.9 1.9 4.4.9 3.1 1.2 6.4.5 10 .4 3.3-.1 6.2-1.1 8.6-1.6 2.9-3.6 5.1-5.9 6.7.6-2.1.9-4.6.6-7.5" class="AS"/><path d="M461.3 33.2c-.2-3.6 4.9-12.5-5.4-10.3-1.9.8.6 6.5 2.3 8.9 1.3 1.1 2.6 1.6 3.1 1.4" class="AT"/></svg>