<?xml version="1.0" encoding="UTF-8"?>
<svg width="89px" height="21px" viewBox="0 0 89 21" version="1.1" xmlns="http://www.w3.org/2000/svg" xmlns:xlink="http://www.w3.org/1999/xlink">
    <!-- Generator: Sketch 60 (88103) - https://sketch.com -->
    <g id="All" stroke="none" stroke-width="1" fill="none" fill-rule="evenodd">
        <g id="Header/Header/Header_Mob" transform="translate(-16.000000, -18.000000)" fill="#000000">
            <g id="Icon/Afisha_Logo" transform="translate(16.000000, 16.000000)">
                <g id="Group">
                    <path d="M84.3579359,14.9856607 L79.7677794,14.9856607 C78.8632309,14.9856607 78.6700459,14.4417287 78.6700459,14.156582 L78.6700459,13.6675865 C78.6700459,13.1719504 78.945737,12.7465445 79.7466498,12.7465445 L84.3579359,12.7465445 L84.3579359,14.9856607 Z M75.5364239,7.71633069 L75.5364239,9.58477629 L83.2708677,9.58477629 C83.8677289,9.58477629 84.3539112,9.8051261 84.3539112,10.4903234 L84.3579359,10.8380535 L76.9883301,10.8380535 C75.7020398,10.8380535 74.9524417,11.7566808 74.9524417,12.7688813 L74.9524417,15.0073938 C74.9524417,15.9125385 75.654951,16.9979877 76.9883301,16.9979877 L88.0761437,16.9979877 L88.0819795,9.60469833 C88.0819795,8.27776991 86.9653299,7.71633069 85.7150606,7.71633069 L75.5364239,7.71633069 Z M69.6921748,14.9854595 L65.1762738,14.9854595 L65.1762738,7.74007614 L61.3055303,7.74007614 L61.3055303,14.9854595 L56.7914405,14.9854595 L56.7914405,7.74007614 L52.9041958,7.74007614 L52.9041958,17 L73.5522528,17 L73.5522528,7.74007614 L69.6921748,7.74007614 L69.6921748,14.9854595 Z M32.2138795,14.0446966 C32.2138795,14.7311013 31.7272947,15.0375787 31.1286224,15.0375787 L27.4156467,15.0375787 L27.4156467,9.56586042 L31.1286224,9.56586042 C31.7272947,9.56586042 32.2138795,9.87233782 32.2138795,10.5581389 L32.2138795,14.0446966 Z M23.5555686,15.0375787 L19.8421904,15.0375787 C19.2441218,15.0375787 18.7575371,14.7311013 18.7575371,14.0446966 L18.7575371,10.5581389 C18.7575371,9.87233782 19.2441218,9.56586042 19.8421904,9.56586042 L23.5555686,9.56586042 L23.5555686,15.0375787 Z M27.4186652,7.69500002 L27.4186652,2.59515974 L23.5531538,2.59515974 L23.5531538,7.69500002 L17.3992049,7.69500002 C16.1471246,7.69500002 15.0304749,8.25764664 15.0304749,9.58477629 L15.0304749,15.0168518 C15.0304749,16.3449876 16.1471246,17.0396428 17.3992049,17.0396428 L23.5531538,17.0396428 L23.5531538,22.1396844 L27.4186652,22.1396844 L27.4186652,17.0396428 L33.5728153,17.0396428 C34.824292,17.0396428 35.9413441,16.3449876 35.9413441,15.0168518 L35.9413441,9.58477629 C35.9413441,8.25764664 34.824292,7.69500002 33.5728153,7.69500002 L27.4186652,7.69500002 Z M41.5588021,13.7869175 L41.575907,7.74007614 L37.7063709,7.74007614 L37.7063709,17 L41.575907,17 L47.1448675,10.8849408 L47.1177009,17 L50.9908592,16.9969815 L50.9908592,7.74007614 L47.1177009,7.74007614 L41.5588021,13.7869175 Z M9.48686996,14.9856607 L4.89651229,14.9856607 C3.99337235,14.9856607 3.79837622,14.4417287 3.79837622,14.156582 L3.79837622,13.6675865 C3.79837622,13.1719504 4.07527474,12.7465445 4.87538268,12.7465445 L9.48686996,12.7465445 L9.48686996,14.9856607 Z M0.665961707,7.71633069 L0.664754301,9.58477629 L8.39899685,9.58477629 C8.99646175,9.58477629 9.48324774,9.8051261 9.48324774,10.4903234 L9.48686996,10.8380535 L2.1176666,10.8380535 C0.830772672,10.8380535 0.0819795071,11.7566808 0.0819795071,12.7688813 L0.0819795071,15.0073938 C0.0819795071,15.9125385 0.783080122,16.9979877 2.1176666,16.9979877 L13.2048766,16.9979877 L13.2109136,9.60469833 C13.2109136,8.27776991 12.0954714,7.71633069 10.8437935,7.71633069 L0.665961707,7.71633069 Z" id="-g-Fill-1"></path>
                </g>
            </g>
        </g>
    </g>
</svg>