<?xml version="1.0" encoding="utf-8"?>
<!-- Generator: Adobe Illustrator 19.2.1, SVG Export Plug-In . SVG Version: 6.00 Build 0)  -->
<svg version="1.1" id="Layer_1" xmlns="http://www.w3.org/2000/svg" xmlns:xlink="http://www.w3.org/1999/xlink" x="0px" y="0px"
	 viewBox="0 0 139.4 26.2" style="enable-background:new 0 0 139.4 26.2;" xml:space="preserve">
<style type="text/css">
	.st0{fill:#20A038;}
</style>
<g>
	<g>
		<g>
			<g>
				<g>
					<g>
						<path class="st0" d="M45.6,15.8l0.4,0.9c-1.3,0.8-3,1.3-4.8,1.3c-4.3,0-6.7-2.3-6.7-7.2c0-4.7,2-7.5,7-7.5
							c2.2,0,3.7,0.5,4.1,0.6c0,1,0,2,0,3h-0.9L44.5,6c-0.3-1.1-1-1.8-2.9-1.8c-3,0-3.8,2.2-3.8,6.1c0,3.6,0.8,6.4,4.3,6.4
							C43.7,16.6,44.7,16.2,45.6,15.8z M52.2,4.4c-0.9,0-1,0.2-1,0.8v3.4H52c3.9,0,6.6,0.4,6.6,4.4c0,3.8-2.1,4.7-5.6,4.7h-5.7v-0.4
							c0.7-0.2,0.8-0.4,0.8-1.1v-11c0-0.8-0.1-1-0.8-1.1V3.7h10.6c0,1,0,2,0,3.1h-0.8l-0.2-0.6c-0.4-1.5-1-1.6-2.8-1.6h-1.9V4.4z
							 M52.8,16.8c1.8,0,2.6-1.2,2.6-3.7c0-2.3-0.6-3.6-3-3.6h-1.2v6.1c0,0.9,0.2,1.2,1.3,1.2H52.8z M64.8,4.4
							c-0.6,0-0.7,0.2-0.7,0.6v4.4H66c0.8,0,2-0.1,2.5-0.4v1.8c-0.5-0.4-1.8-0.4-2.6-0.4H64v5.3c0,0.9,0.3,1.1,2.2,1.1h0.4
							c1.8,0,2.3-0.1,2.7-1.9l0.1-0.5h0.9c0,1.1,0,2.2,0,3.3H60.2v-0.4c0.7-0.2,0.8-0.4,0.8-1.1v-11c0-0.8-0.1-1-0.8-1.1V3.7h9.9
							c0,1,0,2,0,3.1h-0.8l-0.2-0.6c-0.4-1.5-1-1.6-2.8-1.6h-1.5V4.4z M72.2,17.7v-0.4c0.7-0.2,0.8-0.4,0.8-1.1v-11
							c0-0.8-0.1-1-0.8-1.1V3.7h5.9c2.8,0,4.9,0.7,4.9,4.1c0,3.5-2.1,4.5-5.5,4.5h-1.4v4c0,0.8,0.1,1,0.8,1.1v0.4L72.2,17.7
							L72.2,17.7z M77.5,11.2c1.9,0,2.3-1.5,2.3-3.7c0-1.9-0.6-3.1-2.6-3.1h-0.3c-0.6,0-0.9,0.1-0.9,0.8v6H77.5z M89.2,4.4
							c-0.9,0-1,0.2-1,0.8v3.4H89c3.9,0,6.6,0.4,6.6,4.4c0,3.8-2.1,4.7-5.6,4.7h-5.7v-0.4c0.7-0.2,0.8-0.4,0.8-1.1v-11
							c0-0.8-0.1-1-0.8-1.1V3.7h10.6c0,1,0,2,0,3.1h-0.8l-0.2-0.6c-0.4-1.5-1-1.6-2.8-1.6h-1.9V4.4z M89.8,16.8
							c1.8,0,2.6-1.2,2.6-3.7c0-2.3-0.6-3.6-3-3.6h-1.2v6.1c0,0.9,0.2,1.2,1.3,1.2H89.8z M105.9,17.7c-0.1-0.8-0.6-2.2-1-3.3
							l-0.6-1.8h-4.5c-0.5,1.4-0.8,2.6-1,3.4c-0.2,0.8-0.3,1.4-0.3,1.7h-2.6c0.3-0.5,1-1.8,2-4.2l2.6-6.4c0.6-1.4,0.7-1.9,0.7-2.3
							c0-0.3-0.1-0.7-0.8-0.8V3.6h4.1c0.1,0.4,0.1,0.9,0.5,2.1l3,8.5c0.6,1.7,1.2,3.1,1.5,3.6h-3.6V17.7z M104.1,11.6l-1.9-5.7
							l-2,5.7H104.1z M120,10.4h-5.5v5.7c0,0.8,0.1,1,0.8,1.1v0.4h-4.7v-0.4c0.7-0.2,0.8-0.4,0.8-1.1v-11c0-0.8-0.1-1-0.8-1.1V3.6
							h4.7V4c-0.7,0.2-0.8,0.4-0.8,1.1v4.3h5.5V5c0-0.8-0.1-1-0.8-1.1V3.5h4.7v0.4c-0.7,0.2-0.8,0.4-0.8,1.1v11c0,0.8,0.1,1,0.8,1.1
							v0.4h-4.7v-0.4c0.7-0.2,0.8-0.4,0.8-1.1V10.4z M126.9,5.1c0-0.8-0.1-1-0.8-1.1V3.6h4.7V4c-0.7,0.2-0.8,0.4-0.8,1.1v11
							c0,0.8,0.1,1,0.8,1.1v0.4h-4.7v-0.4c0.7-0.2,0.8-0.4,0.8-1.1V5.1z M134.4,11.5c1,1.4,3.3,4.5,5,6.2h-4.8
							c-0.3-0.8-0.9-2-2.3-4.2l-2.1-3.2l1.9-2.4c1.1-1.4,2.6-3.4,2.9-4.3h3.3l0,0c-1.3,0.8-3.6,3-4.2,3.8L132.6,9L134.4,11.5z"/>
					</g>
					<rect x="35.6" y="21.2" class="st0" width="103.8" height="1.4"/>
				</g>
			</g>
		</g>
		<path class="st0" d="M27.4,12.5c0,7.5-6.1,13.7-13.7,13.7C6.2,26.2,0,20.1,0,12.5c0-0.3,0-0.6,0-0.9l8.3,4.8L25.8,6.3
			C26.8,8.2,27.4,10.3,27.4,12.5z M8.4,12.9L0.7,8.5C0.5,9,0.4,9.5,0.3,10l8.1,4.6L25.2,5c-0.3-0.4-0.6-0.8-0.9-1.2L8.4,12.9z
			 M23.2,2.7c-0.4-0.4-0.8-0.7-1.2-1L8.4,9.5L1.9,5.8C1.7,6.2,1.4,6.7,1.2,7.1l7.2,4.1L23.2,2.7z M8.4,7.8l12.3-7
			c-0.5-0.3-1-0.6-1.6-0.8L8.4,6.1L3.7,3.4C3.4,3.8,3,4.2,2.7,4.6L8.4,7.8z"/>
	</g>
</g>
</svg>
